<svg width="106" height="80" viewBox="0 0 106 80" fill="none" xmlns="http://www.w3.org/2000/svg">
<path fill-rule="evenodd" clip-rule="evenodd" d="M39.2693 8.70443C33.457 4.48377 19.096 -4.62823 12.9796 2.85631C10.7083 5.7446 9.57801 12.8732 23.2272 18.2814H25.3133C16.0096 14.1032 16.8957 8.87234 18.6013 6.69663C23.4036 0.802163 34.679 7.58014 39.2425 10.9041V18.2814H39.2693V8.70443Z" fill="#C05106"/>
<path fill-rule="evenodd" clip-rule="evenodd" d="M39.1897 8.70443C45.002 4.48377 59.363 -4.62823 65.4794 2.85631C67.7507 5.7446 68.881 12.8732 55.2318 18.2814H53.146C62.4497 14.1032 61.5636 8.87235 59.8579 6.69665C55.0557 0.802178 43.7802 7.58016 39.2167 10.9042V18.2814H39.1897V8.70443Z" fill="#C05106"/>
<g filter="url(#filter0_ii_21_5674)">
<rect x="0.505859" y="9.88477" width="77.4742" height="67.6022" rx="5.36525" fill="#FF5E00"/>
</g>
<rect x="31.1953" y="9.88477" width="16.0958" height="67.6022" fill="#C05106"/>
<rect x="0.505859" y="53.7725" width="15.0227" height="77.4742" transform="rotate(-90 0.505859 53.7725)" fill="#C05106"/>
<ellipse cx="24.7573" cy="33.7871" rx="11.267" ry="15.2641" fill="white"/>
<mask id="mask0_21_5674" style="mask-type:alpha" maskUnits="userSpaceOnUse" x="13" y="18" width="24" height="32">
<ellipse cx="24.7573" cy="33.7871" rx="11.267" ry="15.2641" fill="white"/>
</mask>
<g mask="url(#mask0_21_5674)">
<ellipse cx="27.1192" cy="31.6143" rx="8.90632" ry="12.0718" fill="black"/>
</g>
<ellipse cx="53.6752" cy="33.7871" rx="11.267" ry="15.2641" fill="white"/>
<mask id="mask1_21_5674" style="mask-type:alpha" maskUnits="userSpaceOnUse" x="42" y="18" width="23" height="32">
<ellipse cx="53.6752" cy="33.7871" rx="11.267" ry="15.2641" fill="white"/>
</mask>
<g mask="url(#mask1_21_5674)">
<ellipse cx="56.0352" cy="31.6143" rx="8.90632" ry="12.0718" fill="black"/>
</g>
<ellipse cx="30.0682" cy="24.8539" rx="1.0194" ry="1.0194" fill="white"/>
<ellipse cx="58.9335" cy="24.8539" rx="1.0194" ry="1.0194" fill="white"/>
<g filter="url(#filter1_b_21_5674)">
<path fill-rule="evenodd" clip-rule="evenodd" d="M105.496 59.7161C105.496 70.9186 96.4142 80.0001 85.2117 80.0001C74.0092 80.0001 64.9277 70.9186 64.9277 59.7161C64.9277 48.5136 74.0092 39.4321 85.2117 39.4321C96.4142 39.4321 105.496 48.5136 105.496 59.7161ZM83.2644 50.6289C83.2644 49.5534 84.1363 48.6816 85.2117 48.6816C86.2872 48.6816 87.159 49.5534 87.159 50.6289V61.6634C87.159 62.7388 86.2872 63.6106 85.2117 63.6106C84.1363 63.6106 83.2644 62.7388 83.2644 61.6634V50.6289ZM85.2117 66.207C83.957 66.207 82.9399 67.2241 82.9399 68.4788C82.9399 69.7335 83.957 70.7506 85.2117 70.7506C86.4664 70.7506 87.4835 69.7335 87.4835 68.4788C87.4835 67.2241 86.4664 66.207 85.2117 66.207Z" fill="url(#paint0_linear_21_5674)" fill-opacity="0.24"/>
<path d="M105.171 59.7161C105.171 70.7394 96.235 79.6755 85.2117 79.6755C74.1884 79.6755 65.2523 70.7394 65.2523 59.7161C65.2523 48.6928 74.1884 39.7567 85.2117 39.7567C96.235 39.7567 105.171 48.6928 105.171 59.7161ZM85.2117 48.3571C83.957 48.3571 82.9399 49.3742 82.9399 50.6289V61.6634C82.9399 62.9181 83.957 63.9352 85.2117 63.9352C86.4664 63.9352 87.4835 62.9181 87.4835 61.6634V50.6289C87.4835 49.3742 86.4664 48.3571 85.2117 48.3571ZM85.2117 65.8824C83.7778 65.8824 82.6154 67.0449 82.6154 68.4788C82.6154 69.9127 83.7778 71.0751 85.2117 71.0751C86.6456 71.0751 87.8081 69.9127 87.8081 68.4788C87.8081 67.0449 86.6456 65.8824 85.2117 65.8824Z" stroke="url(#paint1_linear_21_5674)" stroke-width="0.649087"/>
</g>
<defs>
<filter id="filter0_ii_21_5674" x="-0.0306658" y="9.34824" width="78.5477" height="68.6751" filterUnits="userSpaceOnUse" color-interpolation-filters="sRGB">
<feFlood flood-opacity="0" result="BackgroundImageFix"/>
<feBlend mode="normal" in="SourceGraphic" in2="BackgroundImageFix" result="shape"/>
<feColorMatrix in="SourceAlpha" type="matrix" values="0 0 0 0 0 0 0 0 0 0 0 0 0 0 0 0 0 0 127 0" result="hardAlpha"/>
<feOffset dx="-0.536525" dy="-0.536525"/>
<feGaussianBlur stdDeviation="0.804788"/>
<feComposite in2="hardAlpha" operator="arithmetic" k2="-1" k3="1"/>
<feColorMatrix type="matrix" values="0 0 0 0 0 0 0 0 0 0 0 0 0 0 0 0 0 0 0.5 0"/>
<feBlend mode="normal" in2="shape" result="effect1_innerShadow_21_5674"/>
<feColorMatrix in="SourceAlpha" type="matrix" values="0 0 0 0 0 0 0 0 0 0 0 0 0 0 0 0 0 0 127 0" result="hardAlpha"/>
<feOffset dx="0.536525" dy="0.536525"/>
<feGaussianBlur stdDeviation="0.804788"/>
<feComposite in2="hardAlpha" operator="arithmetic" k2="-1" k3="1"/>
<feColorMatrix type="matrix" values="0 0 0 0 1 0 0 0 0 1 0 0 0 0 1 0 0 0 0.8 0"/>
<feBlend mode="normal" in2="effect1_innerShadow_21_5674" result="effect2_innerShadow_21_5674"/>
</filter>
<filter id="filter1_b_21_5674" x="57.6385" y="32.1429" width="55.1469" height="55.1464" filterUnits="userSpaceOnUse" color-interpolation-filters="sRGB">
<feFlood flood-opacity="0" result="BackgroundImageFix"/>
<feGaussianBlur in="BackgroundImageFix" stdDeviation="3.64462"/>
<feComposite in2="SourceAlpha" operator="in" result="effect1_backgroundBlur_21_5674"/>
<feBlend mode="normal" in="SourceGraphic" in2="effect1_backgroundBlur_21_5674" result="shape"/>
</filter>
<linearGradient id="paint0_linear_21_5674" x1="85.2117" y1="39.4321" x2="85.2117" y2="80.0001" gradientUnits="userSpaceOnUse">
<stop stop-color="#4227E7" stop-opacity="0.6"/>
<stop offset="1" stop-color="#4227E7"/>
</linearGradient>
<linearGradient id="paint1_linear_21_5674" x1="81.2137" y1="50.5736" x2="99.4399" y2="73.9443" gradientUnits="userSpaceOnUse">
<stop stop-color="#F1EFFF" stop-opacity="0.8"/>
<stop offset="0.595" stop-color="#4227E7" stop-opacity="0.8"/>
<stop offset="1" stop-color="#4227E7" stop-opacity="0.4"/>
</linearGradient>
</defs>
</svg>
