<svg width="280" height="264" viewBox="0 0 280 264" fill="none" xmlns="http://www.w3.org/2000/svg">
<g filter="url(#filter0_d_360_4671)">
<path d="M44.8855 41.2635C44.8855 35.7287 49.3723 31.2419 54.907 31.2419H224.788C230.322 31.2419 234.809 35.7287 234.809 41.2635V251.7H44.8855V41.2635Z" fill="white" shape-rendering="crispEdges"/>
<rect opacity="0.1" x="65.9542" y="51.3947" width="57.0992" height="14.9618" fill="#4227E7"/>
<rect opacity="0.1" x="130.687" y="69.7152" width="67.4809" height="14.9618" fill="#4227E7"/>
<path d="M69.7456 61.652C68.52 61.652 67.5987 60.9005 67.5539 59.8718H68.5111C68.5648 60.4264 69.0926 60.829 69.7456 60.829C70.5328 60.829 71.0964 60.2564 71.0964 59.4871C71.0964 58.6999 70.5149 58.1274 69.7009 58.1184C69.182 58.1184 68.7884 58.2884 68.5648 58.691H67.6344L68.0549 55.0859H71.7226V55.9268H68.8689L68.6542 57.7427H68.7169C68.9852 57.4833 69.4414 57.3044 69.9335 57.3044C71.1501 57.3044 72.0536 58.2079 72.0536 59.4603C72.0536 60.7395 71.0964 61.652 69.7456 61.652ZM75.3545 61.652C73.8516 61.652 72.975 60.4443 72.975 58.3242C72.975 56.222 73.8695 54.9964 75.3545 54.9964C76.8395 54.9964 77.734 56.222 77.734 58.3242C77.734 60.4443 76.8484 61.652 75.3545 61.652ZM75.3545 60.8021C76.2312 60.8021 76.75 59.9433 76.75 58.3242C76.75 56.714 76.2222 55.8284 75.3545 55.8284C74.4868 55.8284 73.959 56.714 73.959 58.3242C73.959 59.9433 74.4778 60.8021 75.3545 60.8021ZM85.3557 54.3076V62.3229H84.5416V58.1811H83.5039V61.9114H82.7257V54.4686H83.5039V57.4833H84.5416V54.3076H85.3557ZM81.7506 55.2737V55.9625H79.5947V59.675C80.5787 59.666 81.3212 59.6213 82.18 59.4603L82.2426 60.158C81.2765 60.3548 80.4535 60.3906 79.2816 60.3996H78.7449V55.2737H81.7506ZM91.5997 55.7479C91.5997 56.7766 92.369 57.7606 93.6035 58.1542L93.1652 58.8162C92.2438 58.512 91.5461 57.8769 91.1882 57.0718C90.8259 57.944 90.1148 58.6328 89.1576 58.9683L88.7192 58.3152C89.9627 57.8859 90.732 56.8392 90.7409 55.7479V55.5242H88.9429V54.8354H93.362V55.5242H91.5997V55.7479ZM95.2764 54.3076V59.1472H94.4265V54.3076H95.2764ZM95.2764 59.5497V62.3229H94.4265V60.2385H89.8464V59.5497H95.2764ZM99.3466 55.7836C99.3466 56.8034 100.053 57.7338 101.27 58.1184L100.867 58.7804C99.9549 58.4897 99.2885 57.8859 98.9351 57.1255C98.5862 58.0021 97.884 58.6954 96.9224 59.0309L96.484 58.351C97.7364 57.9395 98.4878 56.9018 98.4968 55.7926V55.5689H96.7345V54.8801H101.073V55.5689H99.3466V55.7836ZM102.844 54.3076V56.2935H104.007V56.9913H102.844V59.1203H101.995V54.3076H102.844ZM100.259 59.3172C101.914 59.3172 102.916 59.8628 102.916 60.8021C102.916 61.7504 101.914 62.3139 100.259 62.305C98.5862 62.3139 97.5664 61.7504 97.5664 60.8021C97.5664 59.8628 98.5862 59.3172 100.259 59.3172ZM100.259 59.9881C99.0961 59.9881 98.4073 60.2833 98.4163 60.8021C98.4073 61.3389 99.0961 61.6341 100.259 61.6341C101.413 61.6341 102.084 61.3389 102.084 60.8021C102.084 60.2833 101.413 59.9881 100.259 59.9881ZM109.464 55.5868C109.464 56.6424 110.198 57.6175 111.396 58.0111L110.94 58.682C110.063 58.3734 109.406 57.7472 109.062 56.9555C108.708 57.8545 108.028 58.5568 107.094 58.9057L106.637 58.2258C107.89 57.7785 108.614 56.714 108.623 55.5153V54.7281H109.464V55.5868ZM112.998 54.3076V56.3204H114.161V57.036H112.998V59.1472H112.148V54.3076H112.998ZM110.412 59.335C112.058 59.335 113.069 59.8807 113.069 60.82C113.069 61.7682 112.058 62.3139 110.412 62.305C108.748 62.3139 107.72 61.7682 107.72 60.82C107.72 59.8807 108.748 59.335 110.412 59.335ZM110.412 60.006C109.249 60.006 108.561 60.3101 108.57 60.82C108.561 61.3478 109.249 61.6341 110.412 61.643C111.566 61.6341 112.237 61.3478 112.237 60.82C112.237 60.3101 111.566 60.006 110.412 60.006ZM117.399 56.3472C117.39 57.7696 118.213 59.2187 119.412 59.8002L118.884 60.4801C118.012 60.0283 117.336 59.1293 116.987 58.0558C116.625 59.2009 115.923 60.158 115.01 60.6322L114.483 59.9433C115.717 59.3529 116.549 57.8143 116.549 56.3472V54.9785H117.399V56.3472ZM120.861 54.3076V57.5012H122.149V58.2258H120.861V62.3229H120.011V54.3076H120.861ZM129.431 54.3076V62.3229H128.617V54.3076H129.431ZM127.803 54.4597V61.9293H126.989V58.0648H126.085C126.013 59.6302 125.343 60.6053 124.35 60.5964C123.303 60.6053 122.623 59.505 122.623 57.7696C122.623 56.0341 123.303 54.9427 124.35 54.9517C125.325 54.9427 125.987 55.8686 126.085 57.376H126.989V54.4597H127.803ZM124.35 55.7479C123.768 55.7479 123.41 56.4903 123.41 57.7696C123.41 59.0488 123.768 59.7913 124.35 59.7913C124.94 59.7913 125.307 59.0488 125.307 57.7696C125.307 56.4903 124.94 55.7479 124.35 55.7479ZM137.339 54.3076V62.3229H136.534V54.3076H137.339ZM135.648 54.5134V61.9293H134.843V58.2079H133.277C132.799 59.1382 132.038 59.9523 130.907 60.6143L130.424 60.006C132.123 58.9951 132.942 57.6488 133.089 55.9983H130.799V55.3006H133.93C133.926 56.0833 133.819 56.8303 133.573 57.528H134.843V54.5134H135.648ZM146.901 54.2808V56.1594H148.073V56.8571H146.901V58.691H146.052V54.2808H146.901ZM146.901 59.0667V60.9274H142.572V61.5983H147.179V62.2424H141.74V60.328H146.061V59.7018H141.722V59.0667H146.901ZM145.39 54.9875V55.6584H140.613V54.9875H142.581V54.236H143.431V54.9875H145.39ZM143.001 55.9625C144.173 55.9625 144.942 56.4635 144.942 57.2776C144.942 58.0916 144.173 58.5836 143.001 58.5836C141.82 58.5836 141.051 58.0916 141.051 57.2776C141.051 56.4635 141.82 55.9625 143.001 55.9625ZM143.001 56.5708C142.312 56.5708 141.865 56.8482 141.874 57.2776C141.865 57.7069 142.312 57.9664 143.001 57.9664C143.69 57.9664 144.137 57.7069 144.146 57.2776C144.137 56.8482 143.69 56.5708 143.001 56.5708ZM153.584 55.7747C153.584 56.8571 154.308 57.9127 155.516 58.3331L155.051 58.9951C154.174 58.6596 153.521 57.9977 153.181 57.1613C152.832 58.0916 152.148 58.8251 151.204 59.183L150.748 58.512C151.992 58.0648 152.734 56.9555 152.743 55.7479V54.7996H153.584V55.7747ZM157.439 54.3166V60.2922H156.59V56.8392H154.899V56.1415H156.59V54.3166H157.439ZM157.618 61.4641V62.1529H152.206V59.6213H153.065V61.4641H157.618ZM165.982 57.6264V58.3063H162.744V59.0041H165.061V60.8826H160.391V61.5893H165.285V62.2424H159.56V60.2654H164.22V59.6571H159.551V59.0041H161.894V58.3063H158.674V57.6264H165.982ZM165.043 54.567V57.036H159.613V54.567H165.043ZM160.445 55.238V56.3651H164.193V55.238H160.445ZM170.241 54.4418C172.048 54.4418 173.103 54.9249 173.103 55.8194C173.103 56.714 172.048 57.206 170.241 57.206C168.434 57.206 167.378 56.714 167.378 55.8194C167.378 54.9249 168.434 54.4418 170.241 54.4418ZM170.241 55.068C168.961 55.068 168.255 55.3453 168.264 55.8194C168.255 56.3114 168.961 56.5708 170.241 56.5708C171.52 56.5708 172.227 56.3114 172.227 55.8194C172.227 55.3453 171.52 55.068 170.241 55.068ZM173.899 57.698V58.3779H166.591V57.698H173.899ZM172.978 58.9951V60.8737H168.308V61.5893H173.202V62.2424H167.476V60.2564H172.137V59.6302H167.467V58.9951H172.978ZM179.553 55.9625C179.553 56.875 180.278 57.7338 181.503 58.0737L181.118 58.7267C180.184 58.4673 179.499 57.9037 179.141 57.1792C178.788 57.9708 178.086 58.5881 177.138 58.8788L176.726 58.2079C177.952 57.859 178.712 56.9645 178.712 55.9625V55.8731H176.968V55.1932H178.712V54.2718H179.562V55.1932H181.297V55.8731H179.553V55.9625ZM183.042 54.3076V56.2309H184.205V56.9376H183.042V58.9325H182.192V54.3076H183.042ZM183.167 59.335V60.0149H180.975C181.127 60.7619 182.156 61.4462 183.498 61.643L183.185 62.296C181.968 62.1082 180.966 61.5491 180.501 60.7842C180.041 61.5446 179.048 62.0948 177.835 62.2871L177.522 61.6341C178.869 61.4462 179.884 60.7842 180.045 60.0149H177.844V59.335H183.167ZM191.146 55.0769V55.8641C191.146 56.8571 191.146 57.9664 190.842 59.6034L189.984 59.514C190.297 57.9664 190.297 56.8303 190.297 55.8641V55.7657H185.43V55.0769H191.146ZM191.969 60.5338V61.2405H184.661V60.5338H187.443V57.7069H188.284V60.5338H191.969ZM197.596 59.6034C197.596 60.2922 197.936 61.0213 198.661 61.4552C199.399 60.9855 199.761 60.2162 199.761 59.6034V59.2187H200.593V59.6034C200.593 60.4354 201.139 61.2405 202.185 61.5804L201.765 62.2066C200.973 61.9337 200.437 61.4015 200.155 60.7395C199.9 61.3881 199.421 61.974 198.688 62.2781C197.918 61.9874 197.431 61.4194 197.185 60.7663C196.894 61.397 196.366 61.9293 195.61 62.2066L195.181 61.5804C196.21 61.2136 196.764 60.3817 196.773 59.6034V59.2187H197.596V59.6034ZM201.461 54.3166V58.8788H200.611V54.3166H201.461ZM197.113 54.7549C198.339 54.7549 199.242 55.5332 199.242 56.6514C199.242 57.7606 198.339 58.5299 197.113 58.5299C195.888 58.5299 194.975 57.7606 194.975 56.6514C194.975 55.5332 195.888 54.7549 197.113 54.7549ZM197.113 55.4795C196.353 55.4705 195.807 55.9447 195.807 56.6514C195.807 57.3491 196.353 57.8232 197.113 57.8232C197.865 57.8232 198.41 57.3491 198.41 56.6514C198.41 55.9447 197.865 55.4705 197.113 55.4795ZM204.905 54.907C205.992 54.907 206.788 55.8284 206.918 57.3133H208.573V54.3076H209.413V62.3408H208.573V58.0021H206.927C206.833 59.5632 206.019 60.5338 204.905 60.5338C203.706 60.5338 202.865 59.4424 202.874 57.7159C202.865 55.9983 203.706 54.907 204.905 54.907ZM204.905 55.6673C204.18 55.6673 203.679 56.4546 203.679 57.7159C203.679 58.9862 204.18 59.7734 204.905 59.7734C205.629 59.7734 206.13 58.9862 206.13 57.7159C206.13 56.4546 205.629 55.6673 204.905 55.6673ZM211.56 61.6251C211.211 61.6251 210.916 61.3389 210.925 60.99C210.916 60.6411 211.211 60.3548 211.56 60.3548C211.9 60.3548 212.196 60.6411 212.196 60.99C212.196 61.3389 211.9 61.6251 211.56 61.6251ZM79.7468 77.0219V77.6929H76.4727V80.3229H75.6408V77.6929H72.4114V77.0219H79.7468ZM74.1647 72.6297V73.6763H77.9756V72.6297H78.8254V76.1095H73.3238V72.6297H74.1647ZM74.1647 75.4296H77.9756V74.3562H74.1647V75.4296ZM86.6349 72.3076V74.213H87.7978V74.9197H86.6349V76.8341H85.7851V72.3076H86.6349ZM84.2554 72.8354V73.5242H81.5359V75.7338C83.0969 75.7293 83.9781 75.6712 84.98 75.4744L85.0784 76.1542C83.996 76.3868 83.0477 76.4226 81.3302 76.4226H80.695V72.8354H84.2554ZM86.6349 77.2277V80.2155H81.518V77.2277H86.6349ZM82.35 77.9076V79.5357H85.794V77.9076H82.35ZM92.3243 73.4437C92.3243 74.7498 93.7198 75.9843 95.2585 76.2616L94.8649 76.9683C93.5857 76.691 92.4048 75.8501 91.886 74.7229C91.3582 75.8411 90.1818 76.682 88.8982 76.9683L88.5224 76.2616C90.0432 75.9753 91.4298 74.7498 91.4298 73.4437V72.8354H92.3243V73.4437ZM95.5895 78.5606V79.2673H88.2541V78.5606H95.5895ZM102.853 72.3166V76.7267H102.003V74.6335H100.554V73.9357H102.003V72.3166H102.853ZM98.4073 77.0846V77.9791H102.012V77.0846H102.853V80.2245H97.5575V77.0846H98.4073ZM98.4073 79.5357H102.012V78.65H98.4073V79.5357ZM100.08 72.6297V74.875H97.3428V75.8411C98.6265 75.8367 99.5792 75.7964 100.715 75.6175L100.787 76.3063C99.5703 76.5031 98.5415 76.5389 97.1281 76.5389H96.5019V74.2309H99.2572V73.3185H96.493V72.6297H100.08ZM107.04 74.6693C107.04 76.0111 107.917 77.3977 109.151 77.9255L108.686 78.5874C107.742 78.1715 106.991 77.2903 106.619 76.2168C106.248 77.3619 105.492 78.337 104.562 78.7932L104.07 78.1223C105.278 77.5587 106.172 76.0469 106.181 74.6693V73.8194H104.347V73.1127H108.865V73.8194H107.04V74.6693ZM110.725 72.3076V80.3229H109.876V72.3076H110.725ZM116.469 72.737C117.685 72.737 118.571 73.5153 118.571 74.5977C118.571 75.6891 117.685 76.4584 116.469 76.4584C115.261 76.4584 114.357 75.6891 114.366 74.5977C114.357 73.5153 115.261 72.737 116.469 72.737ZM116.469 73.4437C115.744 73.4437 115.189 73.9178 115.189 74.5977C115.189 75.2776 115.744 75.7606 116.469 75.7606C117.202 75.7606 117.748 75.2776 117.748 74.5977C117.748 73.9178 117.202 73.4437 116.469 73.4437ZM120.539 72.3076V74.0609H121.702V74.7677H120.539V76.2974H119.689V72.3076H120.539ZM115.878 77.1293V79.4104C116.348 79.3881 116.889 79.321 117.399 79.151L117.524 79.8219C116.782 80.0724 116.057 80.1082 115.458 80.1082H115.046V77.1293H115.878ZM121.29 77.1561V77.8092H117.247V77.1561H118.866V76.5031H119.698V77.1561H121.29ZM119.269 78.0417C120.154 78.0417 120.78 78.489 120.78 79.1868C120.78 79.8756 120.154 80.3139 119.269 80.305C118.365 80.3139 117.748 79.8756 117.757 79.1868C117.748 78.489 118.365 78.0417 119.269 78.0417ZM119.269 78.65C118.821 78.65 118.508 78.8558 118.508 79.1868C118.508 79.5088 118.821 79.7146 119.269 79.7146C119.707 79.7146 120.02 79.5088 120.02 79.1868C120.02 78.8558 119.707 78.65 119.269 78.65ZM129.046 72.3076V80.3229H128.241V72.3076H129.046ZM127.355 72.5134V79.9293H126.55V76.2079H124.985C124.506 77.1382 123.746 77.9523 122.614 78.6143L122.131 78.006C123.831 76.9951 124.649 75.6488 124.797 73.9983H122.507V73.3006H125.638C125.633 74.0833 125.526 74.8303 125.28 75.528H126.55V72.5134H127.355ZM134.789 79.652C133.564 79.652 132.642 78.9005 132.597 77.8718H133.555C133.608 78.4264 134.136 78.829 134.789 78.829C135.576 78.829 136.14 78.2564 136.14 77.4871C136.14 76.6999 135.558 76.1274 134.744 76.1184C134.226 76.1184 133.832 76.2884 133.608 76.691H132.678L133.098 73.0859H136.766V73.9268H133.912L133.698 75.7427H133.76C134.029 75.4833 134.485 75.3044 134.977 75.3044C136.194 75.3044 137.097 76.2079 137.097 77.4603C137.097 78.7395 136.14 79.652 134.789 79.652ZM141.928 73.0143V76.7536H138.18V73.0143H141.928ZM139.011 73.7031V76.0827H141.096V73.7031H139.011ZM144.164 72.2987V74.6961H145.327V75.4117H144.164V78.1759H143.314V72.2987H144.164ZM144.504 79.4641V80.1529H139.083V77.6124H139.933V79.4641H144.504ZM152.448 72.3166V78.3906H151.598V77.6213H149.988V77.0219H151.598V72.3166H152.448ZM152.645 79.4641V80.1529H146.857V77.8002H147.698V79.4641H152.645ZM145.748 75.9753C147.232 75.9664 149.227 75.9485 150.936 75.7338L150.99 76.3421C150.305 76.4539 149.585 76.5299 148.878 76.5747V78.1401H148.029V76.6194C147.25 76.6552 146.503 76.6596 145.855 76.6552L145.748 75.9753ZM148.369 72.6207C149.54 72.6207 150.354 73.1843 150.354 74.0341C150.354 74.8839 149.54 75.4296 148.369 75.4296C147.179 75.4296 146.374 74.8839 146.374 74.0341C146.374 73.1843 147.179 72.6207 148.369 72.6207ZM148.369 73.2558C147.653 73.2469 147.17 73.551 147.179 74.0341C147.17 74.5082 147.653 74.8034 148.369 74.8034C149.057 74.8034 149.54 74.5082 149.549 74.0341C149.54 73.551 149.057 73.2469 148.369 73.2558ZM162.619 72.3076V77.0756H161.769V75.045H160.275V74.3472H161.769V72.3076H162.619ZM159.935 77.2993C161.617 77.2993 162.646 77.8539 162.646 78.8111C162.646 79.7682 161.617 80.3139 159.935 80.3229C158.253 80.3139 157.216 79.7682 157.225 78.8111C157.216 77.8539 158.253 77.2993 159.935 77.2993ZM159.935 77.9612C158.763 77.9612 158.066 78.2654 158.066 78.8111C158.066 79.3478 158.763 79.6609 159.935 79.652C161.107 79.6609 161.805 79.3478 161.805 78.8111C161.805 78.2654 161.107 77.9612 159.935 77.9612ZM158.808 73.721C158.808 74.7408 159.533 75.7248 160.74 76.1363L160.302 76.8073C159.403 76.4942 158.741 75.8545 158.397 75.0629C158.043 75.9619 157.341 76.682 156.384 77.0309L155.937 76.351C157.18 75.9216 157.94 74.8392 157.94 73.73V73.551H156.205V72.8622H160.526V73.551H158.808V73.721ZM170.348 76.0021V76.682H167.924V78.6411H171.189V79.3389H163.853V78.6411H167.083V76.682H164.766V72.9249H170.276V73.6137H165.616V76.0021H170.348ZM180.251 72.3076V75.5012H181.494V76.2079H180.251V80.3139H179.401V72.3076H180.251ZM178.157 73.1485C178.149 75.4654 177.129 77.5318 174.49 78.8379L174.016 78.1759C176.024 77.174 177.115 75.7248 177.29 73.8552H174.418V73.1485H178.157ZM186.173 72.8354C186.173 73.1396 186.141 73.4258 186.083 73.7031H187.756V72.3166H188.606V77.0846H187.756V76.0827H185.734V75.3938H187.756V74.383H185.869C185.327 75.6398 184.097 76.5389 182.362 77.0041L182.04 76.3331C183.945 75.8188 185.104 74.799 185.26 73.5242H182.46V72.8354H186.173ZM188.606 77.4334V80.305H187.756V78.1044H183.176V77.4334H188.606ZM196.72 72.3076V80.3229H195.906V76.1811H194.868V79.9114H194.09V72.4686H194.868V75.4833H195.906V72.3076H196.72ZM193.115 73.2737V73.9625H190.959V77.675C191.943 77.666 192.685 77.6213 193.544 77.4603L193.607 78.158C192.64 78.3548 191.817 78.3906 190.646 78.3996H190.109V73.2737H193.115ZM200.369 72.8801C201.64 72.8712 202.543 73.6584 202.552 74.7855C202.543 75.9127 201.64 76.6999 200.369 76.6999C199.108 76.6999 198.178 75.9127 198.187 74.7855C198.178 73.6584 199.108 72.8712 200.369 72.8801ZM200.369 73.6137C199.591 73.6137 199.019 74.0788 199.028 74.7855C199.019 75.4922 199.591 75.9574 200.369 75.9574C201.148 75.9574 201.72 75.4922 201.72 74.7855C201.72 74.0788 201.148 73.6137 200.369 73.6137ZM204.386 72.3076V80.3408H203.536V72.3076H204.386ZM197.802 77.9076C199.26 77.9076 201.282 77.8897 203.035 77.6392L203.098 78.2564C201.282 78.6053 199.341 78.6143 197.909 78.6143L197.802 77.9076ZM102.804 91.7747C102.804 92.8571 103.529 93.9127 104.736 94.3331L104.271 94.9951C103.395 94.6596 102.741 93.9977 102.402 93.1613C102.053 94.0916 101.368 94.8251 100.425 95.183L99.9683 94.512C101.212 94.0648 101.954 92.9555 101.963 91.7479V90.7996H102.804V91.7747ZM106.66 90.3166V96.2922H105.81V92.8392H104.119V92.1415H105.81V90.3166H106.66ZM106.839 97.4641V98.1529H101.426V95.6213H102.285V97.4641H106.839ZM115.203 93.6264V94.3063H111.964V95.0041H114.281V96.8826H109.612V97.5893H114.505V98.2424H108.78V96.2654H113.44V95.6571H108.771V95.0041H111.115V94.3063H107.894V93.6264H115.203ZM114.263 90.567V93.036H108.833V90.567H114.263ZM109.665 91.238V92.3651H113.414V91.238H109.665ZM122.449 90.3076V98.3408H121.599V90.3076H122.449ZM118.164 90.907C119.353 90.907 120.23 91.9983 120.23 93.7159C120.23 95.4424 119.353 96.5338 118.164 96.5338C116.956 96.5338 116.088 95.4424 116.088 93.7159C116.088 91.9983 116.956 90.907 118.164 90.907ZM118.164 91.6673C117.421 91.6673 116.911 92.4546 116.911 93.7159C116.911 94.9862 117.421 95.7734 118.164 95.7734C118.897 95.7734 119.407 94.9862 119.407 93.7159C119.407 92.4546 118.897 91.6673 118.164 91.6673ZM127.816 90.9875V91.6673H129.56V90.3166H130.41V96.158H129.56V94.0827H127.816V94.7804H124.095V90.9875H127.816ZM124.936 91.6763V94.1095H126.984V91.6763H124.936ZM130.589 97.4641V98.1529H125.177V95.6213H126.036V97.4641H130.589ZM127.816 93.3849H129.56V92.3651H127.816V93.3849ZM137.951 92.6961V93.5728H141.208V94.2616H133.872V93.5728H137.111V92.6961H137.951ZM140.537 90.5402V91.1932H138.112C138.247 91.8865 139.374 92.4367 140.823 92.5351L140.546 93.1702C139.132 93.0494 137.96 92.5351 137.54 91.73C137.115 92.5351 135.939 93.0494 134.525 93.1702L134.248 92.5351C135.67 92.4367 136.815 91.8865 136.958 91.1932H134.552V90.5402H140.537ZM140.51 95.2456V95.8986H134.552V95.2456H137.111V94.5389H137.951V95.2456H140.51ZM137.522 96.2385C139.079 96.2385 139.973 96.6053 139.973 97.2941C139.973 97.9919 139.079 98.3587 137.522 98.3587C135.965 98.3587 135.098 97.9919 135.098 97.2941C135.098 96.6053 135.965 96.2385 137.522 96.2385ZM137.522 96.82C136.52 96.82 135.957 96.9721 135.965 97.2941C135.957 97.6162 136.52 97.7861 137.522 97.7772C138.542 97.7861 139.088 97.6162 139.096 97.2941C139.088 96.9721 138.542 96.82 137.522 96.82ZM145.448 90.4418C147.255 90.4418 148.31 90.9249 148.31 91.8194C148.31 92.714 147.255 93.206 145.448 93.206C143.641 93.206 142.585 92.714 142.585 91.8194C142.585 90.9249 143.641 90.4418 145.448 90.4418ZM145.448 91.068C144.169 91.068 143.462 91.3453 143.471 91.8194C143.462 92.3114 144.169 92.5708 145.448 92.5708C146.727 92.5708 147.434 92.3114 147.434 91.8194C147.434 91.3453 146.727 91.068 145.448 91.068ZM149.107 93.698V94.3779H141.798V93.698H149.107ZM148.185 94.9951V96.8737H143.516V97.5893H148.409V98.2424H142.684V96.2564H147.344V95.6302H142.675V94.9951H148.185ZM158.634 90.3166V95.7018H157.784V93.2239H156.147V92.5261H157.784V90.3166H158.634ZM156.093 90.9338C156.093 93.0271 154.796 94.4942 152.443 95.2366L152.068 94.5657C153.951 93.9977 155.024 92.96 155.19 91.6226H152.479V90.9338H156.093ZM156.415 95.3708C156.415 96.4532 157.551 97.3478 159.054 97.6072L158.705 98.2781C157.489 98.0635 156.473 97.4507 155.995 96.5695C155.503 97.4552 154.474 98.0679 153.248 98.296L152.917 97.6162C154.429 97.3746 155.565 96.4622 155.574 95.3708V95.0398H156.415V95.3708ZM168.402 90.3076V92.1146H169.565V92.8034H168.402V94.5657H167.552V90.3076H168.402ZM166.237 90.8622C166.237 92.9108 164.851 94.2079 162.471 94.7178L162.114 94.029C164.135 93.622 165.182 92.6782 165.298 91.5421H162.471V90.8622H166.237ZM168.438 94.9057V95.5497H164.108V96.2385H168.349V96.8558H164.108V97.5804H168.617V98.2245H163.259V94.9057H168.438ZM172.168 90.907C173.367 90.907 174.217 91.9983 174.226 93.7159C174.217 95.4424 173.367 96.5338 172.168 96.5338C170.97 96.5338 170.111 95.4424 170.12 93.7159C170.111 91.9983 170.97 90.907 172.168 90.907ZM172.168 91.6673C171.435 91.6673 170.934 92.4546 170.934 93.7159C170.934 94.9862 171.435 95.7734 172.168 95.7734C172.911 95.7734 173.412 94.9862 173.412 93.7159C173.412 92.4546 172.911 91.6673 172.168 91.6673ZM176.265 90.3076V93.4475H177.554V94.1632H176.265V98.3229H175.416V90.3076H176.265ZM178.851 97.6251C178.502 97.6251 178.207 97.3389 178.216 96.99C178.207 96.6411 178.502 96.3548 178.851 96.3548C179.191 96.3548 179.486 96.6411 179.486 96.99C179.486 97.3389 179.191 97.6251 178.851 97.6251Z" fill="#8E8E8E"/>
<path d="M111.908 20.8602L123.053 51.3946H66.7176L34.0458 33.532L111.908 20.8602Z" fill="url(#paint0_linear_360_4671)"/>
<path d="M195.42 107.883L174.198 84.5244H197.557L233.435 97.1962L195.42 107.883Z" fill="url(#paint1_linear_360_4671)"/>
</g>
<rect y="138.723" width="280" height="125.191" fill="url(#paint2_linear_360_4671)"/>
<g filter="url(#filter1_dd_360_4671)">
<rect x="103.248" y="174.143" width="73.1988" height="46.8472" rx="23.4236" fill="#1D1D1D"/>
<path d="M139.847 187.672C137.661 187.672 135.889 189.444 135.889 191.63V197.567C135.889 199.753 137.661 201.525 139.847 201.525C142.033 201.525 143.805 199.753 143.805 197.567V191.63C143.805 189.444 142.033 187.672 139.847 187.672ZM140.342 204.352C143.936 204.098 146.773 201.102 146.773 197.443C146.773 197.102 146.496 196.825 146.155 196.825C145.813 196.825 145.537 197.102 145.537 197.443C145.537 200.585 142.989 203.132 139.847 203.132C136.705 203.132 134.158 200.585 134.158 197.443C134.158 197.102 133.881 196.825 133.539 196.825C133.198 196.825 132.921 197.102 132.921 197.443C132.921 201.018 135.629 203.96 139.105 204.33V206.843C139.105 207.184 139.382 207.461 139.723 207.461C140.065 207.461 140.342 207.184 140.342 206.843V204.352Z" fill="white"/>
<rect x="32.9771" y="179.998" width="43.9193" height="35.1354" rx="17.5677" fill="white"/>
<path d="M53.2651 193.164C54.2573 192.673 55.3922 192.554 56.4647 192.827C57.4045 193.067 58.242 193.594 58.8629 194.331L57.7593 194.331C57.4561 194.331 57.2103 194.576 57.2103 194.88C57.2103 195.183 57.4561 195.429 57.7593 195.429L60.1991 195.429C60.5023 195.429 60.7481 195.183 60.7481 194.88V192.44C60.7481 192.137 60.5023 191.891 60.1991 191.891C59.8959 191.891 59.6502 192.137 59.6502 192.44V193.562C58.8877 192.683 57.8723 192.053 56.7359 191.764C55.4094 191.425 54.0057 191.573 52.7786 192.18C51.5514 192.786 50.5818 193.812 50.045 195.071C49.5082 196.33 49.4397 197.74 49.8518 199.046C50.2639 200.351 51.1295 201.466 52.292 202.189C53.4546 202.911 54.8373 203.194 56.1904 202.986C57.5434 202.779 58.7774 202.093 59.6692 201.055C60.561 200.016 61.0519 198.693 61.053 197.324C61.0532 197.021 60.8076 196.775 60.5045 196.775C60.2013 196.774 59.9553 197.02 59.9551 197.323C59.9542 198.43 59.5573 199.5 58.8363 200.34C58.1152 201.179 57.1175 201.733 56.0236 201.901C54.9296 202.069 53.8116 201.841 52.8717 201.256C51.9318 200.672 51.232 199.77 50.8988 198.715C50.5656 197.66 50.621 196.52 51.055 195.502C51.489 194.483 52.2729 193.654 53.2651 193.164Z" fill="#2D2D2D"/>
<rect x="202.798" y="179.998" width="43.9193" height="35.1354" rx="17.5677" fill="white"/>
<path d="M218.458 193.58C219.759 193.58 220.669 194.281 220.669 195.342C220.669 196.257 219.949 196.923 218.878 197.053V197.924C219.709 197.889 220.554 197.813 221.33 197.693L221.39 198.284C219.508 198.624 217.377 198.644 215.836 198.644L215.736 197.994C216.426 197.999 217.237 197.994 218.087 197.964V197.063C216.987 196.943 216.246 196.272 216.256 195.342C216.246 194.281 217.157 193.58 218.458 193.58ZM218.458 194.191C217.597 194.191 216.987 194.651 216.997 195.342C216.987 196.012 217.597 196.472 218.458 196.482C219.328 196.472 219.919 196.012 219.929 195.342C219.919 194.651 219.328 194.191 218.458 194.191ZM222.691 193.17V196.182H224.022V196.853H222.691V199.975H221.9V193.17H222.691ZM223.011 201.196V201.857H217.037V199.385H217.827V201.196H223.011ZM232.749 200.295V200.956H224.602V200.295H226.894V198.604H225.623V195.862H230.947V194.471H225.603V193.82H231.718V196.512H226.404V197.954H231.928V198.604H230.537V200.295H232.749ZM227.665 200.295H229.766V198.604H227.665V200.295Z" fill="#1D1D1D"/>
</g>
<g filter="url(#filter2_bd_360_4671)">
<rect x="25.9542" y="6.20374" width="86.1069" height="29.6183" rx="14.8092" fill="url(#paint3_linear_360_4671)" fill-opacity="0.2" shape-rendering="crispEdges"/>
<rect x="26.4122" y="6.66175" width="85.1908" height="28.7023" rx="14.3511" stroke="url(#paint4_linear_360_4671)" stroke-width="0.916031" shape-rendering="crispEdges"/>
<path d="M39.149 25.1203C37.5924 25.1203 36.4546 24.1971 36.4116 22.9089H37.7749C37.8179 23.5423 38.4083 23.9931 39.149 23.9931C40.0185 23.9931 40.6411 23.3598 40.6411 22.501C40.6411 21.61 39.997 20.9767 39.106 20.9767C38.5049 20.9659 38.0648 21.1806 37.8179 21.6422H36.519L36.9913 17.241H41.5858V18.4111H38.1399L37.9037 20.4721H37.9789C38.2795 20.1286 38.8484 19.8817 39.4817 19.8817C40.9309 19.8817 41.9937 20.9659 41.9937 22.4581C41.9937 24.0146 40.8236 25.1203 39.149 25.1203ZM46.0407 25.1203C44.1728 25.1203 43.0564 23.6711 43.0564 21.127C43.0564 18.5936 44.1728 17.1336 46.0407 17.1336C47.8978 17.1336 49.0249 18.5936 49.0249 21.127C49.0249 23.6711 47.9085 25.1203 46.0407 25.1203ZM46.0407 23.9502C47.0175 23.9502 47.6187 22.9948 47.6187 21.127C47.6187 19.2699 47.0068 18.293 46.0407 18.293C45.0745 18.293 44.4627 19.2699 44.4627 21.127C44.4627 22.9948 45.0638 23.9502 46.0407 23.9502ZM58.2246 16.2641V25.9683H57.0867V21.0196H55.9918V25.4745H54.8968V16.4466H55.9918V20.0642H57.0867V16.2641H58.2246ZM53.8019 17.4127V18.3789H51.3758V22.6942C52.4332 22.6835 53.3027 22.6298 54.2849 22.4473L54.3708 23.4242C53.2007 23.6604 52.1809 23.6926 50.8284 23.7033H50.1735V17.4127H53.8019ZM65.6638 17.9495C65.6638 19.1518 66.4903 20.3433 68.0361 20.8264L67.4243 21.7496C66.3239 21.4007 65.5242 20.6654 65.0841 19.7422C64.644 20.7459 63.8228 21.5456 62.6688 21.9321L62.0569 21.0089C63.6134 20.4829 64.4507 19.2162 64.4615 17.9495V17.8314H62.3682V16.876H67.7034V17.8314H65.6638V17.9495ZM70.065 16.2641V22.1146H68.8627V16.2641H70.065ZM70.065 22.5654V25.9683H68.8627V23.5315H63.4417V22.5654H70.065ZM74.96 18.0139C74.96 19.2054 75.7329 20.3219 77.2465 20.7835L76.6776 21.7174C75.588 21.3792 74.8151 20.6868 74.3911 19.8066C73.9617 20.8264 73.1405 21.6369 71.9758 22.0287L71.3746 21.084C72.9419 20.5688 73.7577 19.3128 73.7577 18.0246V17.9065H71.7074V16.9404H76.9782V17.9065H74.96V18.0139ZM79.1358 16.2641V18.5936H80.4884V19.5704H79.1358V22.0502H77.9443V16.2641H79.1358ZM75.9798 22.2648C77.9872 22.2648 79.2217 22.9411 79.2325 24.1005C79.2217 25.2706 77.9872 25.9576 75.9798 25.9576C73.951 25.9576 72.695 25.2706 72.695 24.1005C72.695 22.9411 73.951 22.2648 75.9798 22.2648ZM75.9798 23.1988C74.6487 23.1988 73.8866 23.5101 73.8866 24.1005C73.8866 24.7016 74.6487 25.0237 75.9798 25.0237C77.3109 25.0237 78.0516 24.7016 78.0516 24.1005C78.0516 23.5101 77.3109 23.1988 75.9798 23.1988ZM87.0259 17.8099C87.0259 19.0337 87.8202 20.1823 89.3124 20.6546L88.6683 21.5886C87.6217 21.2343 86.8702 20.5258 86.4569 19.6241C86.0275 20.6546 85.2439 21.4651 84.1275 21.8569L83.4834 20.923C85.0507 20.3755 85.8236 19.0874 85.8343 17.7026V16.7794H87.0259V17.8099ZM91.2446 16.2641V18.6258H92.5972V19.6134H91.2446V22.0716H90.0531V16.2641H91.2446ZM88.0886 22.2863C90.096 22.2756 91.3305 22.9626 91.3412 24.1112C91.3305 25.2813 90.096 25.9576 88.0886 25.9576C86.0598 25.9576 84.8038 25.2813 84.8038 24.1112C84.8038 22.9626 86.0598 22.2756 88.0886 22.2863ZM88.0886 23.2202C86.7575 23.2202 85.9953 23.5423 85.9953 24.1112C85.9953 24.7124 86.7575 25.0129 88.0886 25.0129C89.4197 25.0129 90.1604 24.7124 90.1604 24.1112C90.1604 23.5423 89.4197 23.2202 88.0886 23.2202ZM96.5583 18.5936C96.5476 20.3219 97.4171 22.0824 98.92 22.8016L98.19 23.757C97.138 23.2256 96.3812 22.2004 95.9679 20.9659C95.5439 22.2863 94.7495 23.3813 93.6385 23.9395L92.9085 22.9841C94.465 22.2434 95.356 20.3863 95.3668 18.5936V17.0478H96.5583V18.5936ZM100.691 16.2641V20.0642H102.183V21.084H100.691V25.9683H99.4996V16.2641H100.691Z" fill="#4227E7"/>
</g>
<g filter="url(#filter3_bd_360_4671)">
<rect x="196.336" y="96.28" width="45.4962" height="29.6183" rx="14.8092" fill="url(#paint5_linear_360_4671)" fill-opacity="0.2" shape-rendering="crispEdges"/>
<rect x="196.794" y="96.738" width="44.5802" height="28.7023" rx="14.3511" stroke="url(#paint6_linear_360_4671)" stroke-opacity="0.8" stroke-width="0.916031" shape-rendering="crispEdges"/>
<path d="M209.594 115.197C208.038 115.197 206.9 114.273 206.857 112.985H208.22C208.263 113.619 208.854 114.069 209.594 114.069C210.464 114.069 211.087 113.436 211.087 112.577C211.087 111.686 210.443 111.053 209.552 111.053C208.95 111.042 208.51 111.257 208.263 111.719H206.964L207.437 107.317H212.031V108.487H208.585L208.349 110.548H208.424C208.725 110.205 209.294 109.958 209.927 109.958C211.376 109.958 212.439 111.042 212.439 112.534C212.439 114.091 211.269 115.197 209.594 115.197ZM218.225 107.178V111.761H213.631V107.178H218.225ZM214.801 108.133V110.817H217.055V108.133H214.801ZM220.952 106.34V109.185H222.304V110.183H220.952V113.425H219.76V106.34H220.952ZM221.338 114.885V115.851H214.736V112.738H215.928V114.885H221.338ZM230.935 106.351V113.694H229.733V112.846H227.833V112.008H229.733V106.351H230.935ZM231.161 114.885V115.851H224.043V112.985H225.235V114.885H231.161ZM222.755 110.709C224.548 110.699 226.953 110.677 229.014 110.42L229.078 111.278C228.278 111.413 227.452 111.504 226.631 111.558V113.425H225.439V111.622C224.532 111.659 223.668 111.665 222.906 111.665L222.755 110.709ZM225.922 106.705C227.339 106.705 228.327 107.403 228.337 108.423C228.327 109.464 227.339 110.13 225.922 110.13C224.484 110.13 223.496 109.464 223.496 108.423C223.496 107.403 224.484 106.705 225.922 106.705ZM225.922 107.586C225.149 107.586 224.623 107.897 224.623 108.423C224.623 108.949 225.149 109.26 225.922 109.26C226.663 109.26 227.189 108.949 227.199 108.423C227.189 107.897 226.663 107.586 225.922 107.586Z" fill="#4227E7" fill-opacity="0.9"/>
</g>
<defs>
<filter id="filter0_d_360_4671" x="26.0458" y="12.2495" width="216.763" height="246.84" filterUnits="userSpaceOnUse" color-interpolation-filters="sRGB">
<feFlood flood-opacity="0" result="BackgroundImageFix"/>
<feColorMatrix in="SourceAlpha" type="matrix" values="0 0 0 0 0 0 0 0 0 0 0 0 0 0 0 0 0 0 127 0" result="hardAlpha"/>
<feOffset dy="-0.610687"/>
<feGaussianBlur stdDeviation="4"/>
<feComposite in2="hardAlpha" operator="out"/>
<feColorMatrix type="matrix" values="0 0 0 0 0 0 0 0 0 0 0 0 0 0 0 0 0 0 0.08 0"/>
<feBlend mode="normal" in2="BackgroundImageFix" result="effect1_dropShadow_360_4671"/>
<feBlend mode="normal" in="SourceGraphic" in2="effect1_dropShadow_360_4671" result="shape"/>
</filter>
<filter id="filter1_dd_360_4671" x="23.8168" y="166.204" width="232.061" height="65.1678" filterUnits="userSpaceOnUse" color-interpolation-filters="sRGB">
<feFlood flood-opacity="0" result="BackgroundImageFix"/>
<feColorMatrix in="SourceAlpha" type="matrix" values="0 0 0 0 0 0 0 0 0 0 0 0 0 0 0 0 0 0 127 0" result="hardAlpha"/>
<feOffset dy="1.22137"/>
<feGaussianBlur stdDeviation="1.22137"/>
<feComposite in2="hardAlpha" operator="out"/>
<feColorMatrix type="matrix" values="0 0 0 0 0 0 0 0 0 0 0 0 0 0 0 0 0 0 0.12 0"/>
<feBlend mode="normal" in2="BackgroundImageFix" result="effect1_dropShadow_360_4671"/>
<feColorMatrix in="SourceAlpha" type="matrix" values="0 0 0 0 0 0 0 0 0 0 0 0 0 0 0 0 0 0 127 0" result="hardAlpha"/>
<feOffset dy="1.22137"/>
<feGaussianBlur stdDeviation="4.58015"/>
<feComposite in2="hardAlpha" operator="out"/>
<feColorMatrix type="matrix" values="0 0 0 0 0 0 0 0 0 0 0 0 0 0 0 0 0 0 0.14 0"/>
<feBlend mode="normal" in2="effect1_dropShadow_360_4671" result="effect2_dropShadow_360_4671"/>
<feBlend mode="normal" in="SourceGraphic" in2="effect2_dropShadow_360_4671" result="shape"/>
</filter>
<filter id="filter2_bd_360_4671" x="19.8473" y="0.0968647" width="98.3206" height="41.832" filterUnits="userSpaceOnUse" color-interpolation-filters="sRGB">
<feFlood flood-opacity="0" result="BackgroundImageFix"/>
<feGaussianBlur in="BackgroundImageFix" stdDeviation="1.22137"/>
<feComposite in2="SourceAlpha" operator="in" result="effect1_backgroundBlur_360_4671"/>
<feColorMatrix in="SourceAlpha" type="matrix" values="0 0 0 0 0 0 0 0 0 0 0 0 0 0 0 0 0 0 127 0" result="hardAlpha"/>
<feOffset/>
<feGaussianBlur stdDeviation="3.05344"/>
<feComposite in2="hardAlpha" operator="out"/>
<feColorMatrix type="matrix" values="0 0 0 0 0.258824 0 0 0 0 0.152941 0 0 0 0 0.905882 0 0 0 0.2 0"/>
<feBlend mode="normal" in2="effect1_backgroundBlur_360_4671" result="effect2_dropShadow_360_4671"/>
<feBlend mode="normal" in="SourceGraphic" in2="effect2_dropShadow_360_4671" result="shape"/>
</filter>
<filter id="filter3_bd_360_4671" x="190.229" y="90.1732" width="57.7099" height="41.832" filterUnits="userSpaceOnUse" color-interpolation-filters="sRGB">
<feFlood flood-opacity="0" result="BackgroundImageFix"/>
<feGaussianBlur in="BackgroundImageFix" stdDeviation="1.52672"/>
<feComposite in2="SourceAlpha" operator="in" result="effect1_backgroundBlur_360_4671"/>
<feColorMatrix in="SourceAlpha" type="matrix" values="0 0 0 0 0 0 0 0 0 0 0 0 0 0 0 0 0 0 127 0" result="hardAlpha"/>
<feOffset/>
<feGaussianBlur stdDeviation="3.05344"/>
<feComposite in2="hardAlpha" operator="out"/>
<feColorMatrix type="matrix" values="0 0 0 0 0.258824 0 0 0 0 0.152941 0 0 0 0 0.905882 0 0 0 0.2 0"/>
<feBlend mode="normal" in2="effect1_backgroundBlur_360_4671" result="effect2_dropShadow_360_4671"/>
<feBlend mode="normal" in="SourceGraphic" in2="effect2_dropShadow_360_4671" result="shape"/>
</filter>
<linearGradient id="paint0_linear_360_4671" x1="74.8092" y1="20.2495" x2="93.8931" y2="50.7839" gradientUnits="userSpaceOnUse">
<stop stop-color="#4227E7" stop-opacity="0"/>
<stop offset="1" stop-color="#4227E7" stop-opacity="0.05"/>
</linearGradient>
<linearGradient id="paint1_linear_360_4671" x1="218.473" y1="106.051" x2="172.366" y2="81.9289" gradientUnits="userSpaceOnUse">
<stop stop-color="#4227E7" stop-opacity="0"/>
<stop offset="1" stop-color="#4227E7" stop-opacity="0.05"/>
</linearGradient>
<linearGradient id="paint2_linear_360_4671" x1="140" y1="138.723" x2="140" y2="263.914" gradientUnits="userSpaceOnUse">
<stop stop-color="#F5F4FA" stop-opacity="0"/>
<stop offset="0.515" stop-color="#F5F4FA"/>
</linearGradient>
<linearGradient id="paint3_linear_360_4671" x1="69.0076" y1="6.20374" x2="69.0076" y2="35.8221" gradientUnits="userSpaceOnUse">
<stop stop-color="#4227E7" stop-opacity="0.6"/>
<stop offset="1" stop-color="#4227E7"/>
</linearGradient>
<linearGradient id="paint4_linear_360_4671" x1="60.5217" y1="14.338" x2="67.3886" y2="39.9363" gradientUnits="userSpaceOnUse">
<stop stop-color="white" stop-opacity="0.8"/>
<stop offset="0.595" stop-color="#4227E7" stop-opacity="0.6"/>
<stop offset="1" stop-color="#4227E7" stop-opacity="0.4"/>
</linearGradient>
<linearGradient id="paint5_linear_360_4671" x1="219.084" y1="96.28" x2="219.084" y2="125.898" gradientUnits="userSpaceOnUse">
<stop stop-color="#4227E7" stop-opacity="0.6"/>
<stop offset="1" stop-color="#4227E7"/>
</linearGradient>
<linearGradient id="paint6_linear_360_4671" x1="214.6" y1="104.414" x2="225.677" y2="126.231" gradientUnits="userSpaceOnUse">
<stop stop-color="white" stop-opacity="0.8"/>
<stop offset="0.595" stop-color="#4227E7" stop-opacity="0.6"/>
<stop offset="1" stop-color="#4227E7" stop-opacity="0.4"/>
</linearGradient>
</defs>
</svg>
