<svg width="260" height="248" viewBox="0 0 260 248" fill="none" xmlns="http://www.w3.org/2000/svg">
<path fill-rule="evenodd" clip-rule="evenodd" d="M245.831 3.4921C248.21 -0.0587719 253.017 -1.00877 256.568 1.37021C260.119 3.74919 261.069 8.55629 258.69 12.1072L252.051 22.016C251.257 23.2005 250.194 24.0955 248.997 24.6742C248.858 25.8584 248.442 27.028 247.73 28.0853L241.072 37.9809C238.686 41.5271 233.877 42.4675 230.331 40.0815C226.785 37.6954 225.844 32.8864 228.23 29.3403L234.889 19.4447C235.682 18.2664 236.742 17.3758 237.934 16.7993C238.073 15.6201 238.486 14.4552 239.192 13.401L245.831 3.4921ZM238.128 19.6411C237.621 20.0023 237.169 20.4591 236.801 21.0059L230.346 30.5994C228.704 33.04 229.351 36.3497 231.792 37.9919C234.232 39.634 237.542 38.9868 239.184 36.5462L245.639 26.9527C245.966 26.4673 246.202 25.9475 246.351 25.4133C244.637 25.5767 242.857 25.1715 241.314 24.1379C239.671 23.0372 238.585 21.4166 238.128 19.6411ZM246.436 22.9003C245.196 23.0654 243.892 22.7965 242.771 22.0452C241.563 21.236 240.793 20.0187 240.52 18.6993C241.764 18.5338 243.071 18.8046 244.194 19.5603C245.397 20.3697 246.164 21.5843 246.436 22.9003ZM248.834 21.9544C248.397 20.1363 247.304 18.4703 245.63 17.3441C244.104 16.3172 242.343 15.9064 240.643 16.0544C240.792 15.5699 241.014 15.0986 241.311 14.6557L247.747 5.04936C249.384 2.60552 252.692 1.9517 255.136 3.589C257.58 5.2263 258.234 8.53471 256.596 10.9785L250.16 20.5849C249.793 21.1335 249.341 21.5919 248.834 21.9544Z" fill="url(#paint0_linear_360_5497)" fill-opacity="0.2"/>
<path fill-rule="evenodd" clip-rule="evenodd" d="M19.3108 121.057C15.3546 117.178 9.00334 117.241 5.1248 121.197C1.24626 125.153 1.30922 131.505 5.26541 135.383L16.3054 146.207C17.615 147.49 19.1871 148.342 20.845 148.764C21.336 150.651 22.3811 152.415 23.9622 153.793L35.6187 163.949C39.7959 167.589 46.1325 167.153 49.772 162.976C53.4115 158.798 52.9756 152.462 48.7985 148.822L37.1419 138.666C35.9178 137.6 34.5083 136.883 33.0355 136.508C32.593 134.807 31.6974 133.2 30.3508 131.88L19.3108 121.057ZM33.3084 140.059C34.0071 140.34 34.6714 140.74 35.2711 141.262L46.5717 151.109C49.4466 153.613 49.7466 157.974 47.2418 160.849C44.737 163.724 40.3758 164.024 37.501 161.519L26.2003 151.673C25.343 150.926 24.7147 150.014 24.3214 149.026C26.5809 148.802 28.7776 147.814 30.4914 146.066C32.1495 144.375 33.0873 142.246 33.3084 140.059ZM23.8607 145.83C25.4099 145.673 26.9151 144.994 28.0904 143.795C29.247 142.615 29.8943 141.126 30.035 139.599C28.3526 139.771 26.7289 140.557 25.5303 141.933C24.5406 143.068 23.9888 144.436 23.8607 145.83ZM20.5577 145.358C20.7343 143.314 21.5375 141.305 22.9886 139.64C24.7251 137.647 27.0755 136.505 29.5124 136.252C29.1675 135.442 28.6611 134.686 27.9936 134.031L17.2907 123.539C14.5679 120.869 10.1967 120.913 7.5274 123.635C4.85805 126.358 4.90138 130.729 7.62417 133.399L18.327 143.891C18.9892 144.541 19.7488 145.029 20.5577 145.358Z" fill="url(#paint1_linear_360_5497)" fill-opacity="0.2"/>
<g opacity="0.5" filter="url(#filter0_dd_360_5497)">
<rect x="52.3618" y="181.5" width="166.511" height="54.1161" rx="6.24417" fill="white"/>
<rect x="58.606" y="187.744" width="41.6278" height="41.6278" rx="4.16278" fill="#FEEEE4"/>
<path d="M91.8754 205.886C91.9039 206.295 91.5684 206.629 91.1579 206.629H80.8136V214.186C80.8136 214.46 81.0355 214.681 81.3092 214.681H85.769C86.0427 214.681 86.2645 214.903 86.2645 215.177V216.663C86.2645 216.937 86.0427 217.159 85.769 217.159H73.1329C72.8592 217.159 72.6373 216.937 72.6373 216.663V215.177C72.6373 214.903 72.8592 214.681 73.1329 214.681H77.5927C77.8664 214.681 78.0882 214.46 78.0882 214.186V206.629H67.7439C67.3334 206.629 66.9979 206.295 67.0264 205.886C67.4426 199.903 72.8461 200.14 79.4509 200.14C86.0557 200.14 91.4593 199.903 91.8754 205.886Z" fill="url(#paint2_linear_360_5497)"/>
<path d="M113.438 195.833V196.573H106.722V195.833H109.616V194.231H107.462V190.687H112.665V194.231H110.511V195.833H113.438ZM108.348 191.41V193.524H111.771V191.41H108.348ZM117.714 190.662V191.394H115.251V193.727C116.397 193.719 117.186 193.679 118.08 193.508L118.169 194.24C117.169 194.418 116.291 194.459 114.934 194.467H114.356V190.662H117.714ZM120.072 190.126V195.475H119.17V192.801H117.267V192.085H119.17V190.126H120.072ZM120.259 196.622V197.354H115.243V195.045H116.153V196.622H120.259ZM129.056 193.459V194.175H126.877V195.858H129.804V196.597H123.088V195.858H125.983V194.175H123.901V190.662H128.999V191.386H124.804V193.459H129.056ZM131.601 190.565V193.386C132.585 193.37 133.54 193.292 134.56 193.085L134.658 193.857C133.503 194.085 132.438 194.134 131.3 194.126H130.707V190.565H131.601ZM136.439 190.117V195.069H135.536V192.272H133.601V191.54H135.536V190.117H136.439ZM134.438 194.825C134.43 195.719 135.325 196.516 136.821 196.728L136.463 197.427C135.317 197.24 134.426 196.719 133.983 195.98C133.528 196.723 132.629 197.248 131.487 197.435L131.154 196.728C132.617 196.508 133.536 195.727 133.536 194.825V194.573H134.438V194.825ZM143.252 191.126C143.252 192.264 144.366 193.402 145.902 193.67L145.496 194.427C144.264 194.166 143.256 193.422 142.78 192.435C142.292 193.414 141.284 194.162 140.057 194.427L139.658 193.67C141.179 193.394 142.284 192.256 142.292 191.126V190.581H143.252V191.126ZM146.171 195.784V196.532H139.455V195.784H146.171ZM149.813 190.727V191.443H147.797V192.215H149.74V192.922H147.797V193.736C148.695 193.727 149.317 193.695 150.033 193.565L150.13 194.288C149.268 194.443 148.553 194.467 147.415 194.467H146.927V190.727H149.813ZM152.935 190.126V195.614H152.073V192.931H151.309V195.435H150.464V190.264H151.309V192.199H152.073V190.126H152.935ZM153.138 196.589V197.321H148.016V194.971H148.919V196.589H153.138ZM159.814 193.565V194.288H154.659V190.76H159.757V191.492H155.553V193.565H159.814ZM160.562 195.784V196.532H153.846V195.784H160.562Z" fill="#8E8E8E"/>
<path d="M106.834 212.383V211.856L109.153 208.285H109.942V211.821H110.661V212.383H109.942V213.436H109.331V212.383H106.834ZM107.524 211.821H109.331V209.096H109.267L107.524 211.778V211.821ZM111.508 213.436L111.5 212.966L113.258 211.116C113.869 210.469 114.161 210.12 114.161 209.644C114.161 209.117 113.713 208.769 113.137 208.769C112.525 208.769 112.134 209.16 112.134 209.736H111.529C111.522 208.826 112.226 208.214 113.158 208.214C114.09 208.214 114.759 208.84 114.759 209.644C114.759 210.22 114.488 210.668 113.578 211.607L112.397 212.824V212.866H114.851V213.436H111.508ZM116.594 212.959L116.039 214.894H115.513L115.904 212.959H116.594ZM119.162 213.507C118.017 213.507 117.363 212.546 117.363 210.86C117.363 209.188 118.031 208.214 119.162 208.214C120.294 208.214 120.962 209.188 120.962 210.86C120.962 212.546 120.301 213.507 119.162 213.507ZM119.162 212.938C119.902 212.938 120.336 212.191 120.336 210.86C120.336 209.53 119.902 208.769 119.162 208.769C118.423 208.769 117.981 209.53 117.981 210.86C117.981 212.191 118.415 212.938 119.162 212.938ZM123.502 213.507C122.357 213.507 121.702 212.546 121.702 210.86C121.702 209.188 122.371 208.214 123.502 208.214C124.633 208.214 125.302 209.188 125.302 210.86C125.302 212.546 124.64 213.507 123.502 213.507ZM123.502 212.938C124.242 212.938 124.676 212.191 124.676 210.86C124.676 209.53 124.242 208.769 123.502 208.769C122.762 208.769 122.321 209.53 122.321 210.86C122.321 212.191 122.755 212.938 123.502 212.938ZM127.842 213.507C126.696 213.507 126.042 212.546 126.042 210.86C126.042 209.188 126.71 208.214 127.842 208.214C128.973 208.214 129.642 209.188 129.642 210.86C129.642 212.546 128.98 213.507 127.842 213.507ZM127.842 212.938C128.581 212.938 129.015 212.191 129.015 210.86C129.015 209.53 128.581 208.769 127.842 208.769C127.102 208.769 126.661 209.53 126.661 210.86C126.661 212.191 127.095 212.938 127.842 212.938ZM135.482 207.694V212.496H134.92V211.842H133.611V211.436H134.92V207.694H135.482ZM135.639 213.407V213.877H131.143V212.027H131.705V213.407H135.639ZM130.232 210.625C131.413 210.618 132.992 210.611 134.351 210.44L134.387 210.846C133.821 210.935 133.231 210.992 132.651 211.024V212.276H132.089V211.052C131.448 211.081 130.84 211.084 130.31 211.081L130.232 210.625ZM132.309 207.951C133.234 207.951 133.867 208.392 133.874 209.053C133.867 209.729 133.234 210.149 132.309 210.149C131.377 210.149 130.744 209.729 130.744 209.053C130.744 208.392 131.377 207.951 132.309 207.951ZM132.309 208.377C131.69 208.37 131.271 208.648 131.278 209.053C131.271 209.466 131.69 209.736 132.309 209.736C132.907 209.736 133.334 209.466 133.341 209.053C133.334 208.648 132.907 208.37 132.309 208.377Z" fill="#8E8E8E"/>
<path fill-rule="evenodd" clip-rule="evenodd" d="M203.768 191.155C203.005 190.096 201.557 189.936 200.601 190.79C199.624 191.661 199.564 193.224 200.474 194.175L204.303 198.035L208.132 194.175C209.042 193.224 208.982 191.661 208.006 190.79C207.049 189.936 205.601 190.096 204.838 191.155L204.683 191.37C204.595 191.493 204.454 191.565 204.303 191.565C204.152 191.565 204.011 191.493 203.923 191.37L203.768 191.155ZM204.303 190.329C205.431 189.08 207.341 188.941 208.629 190.091C210.005 191.319 210.084 193.495 208.805 194.827L208.8 194.832L204.912 198.752C204.577 199.097 204.029 199.097 203.694 198.752L199.806 194.832L199.801 194.827C198.523 193.495 198.601 191.319 199.977 190.091C201.265 188.941 203.175 189.08 204.303 190.329Z" fill="#8E8E8E"/>
</g>
<g filter="url(#filter1_dd_360_5497)">
<rect x="39.4428" y="58.3387" width="192.349" height="62.5135" rx="7.21309" fill="white"/>
<rect x="46.6559" y="65.5519" width="48.0873" height="48.0873" rx="4.80873" fill="#FEEEE4"/>
<path d="M85.0879 89.3783C85.1208 89.8514 84.7332 90.237 84.259 90.237H72.3096V98.9665C72.3096 99.2827 72.5658 99.5389 72.882 99.5389H78.0338C78.35 99.5389 78.6063 99.7952 78.6063 100.111V101.829C78.6063 102.145 78.35 102.401 78.0338 102.401H63.437C63.1208 102.401 62.8645 102.145 62.8645 101.829V100.111C62.8645 99.7952 63.1208 99.5389 63.437 99.5389H68.5888C68.905 99.5389 69.1612 99.2827 69.1612 98.9665V90.237H57.2118C56.7376 90.237 56.35 89.8514 56.3829 89.3783C56.8637 82.4677 63.1057 76.9996 70.7354 76.9996C78.3651 76.9996 84.6071 82.4677 85.0879 89.3783Z" fill="url(#paint3_linear_360_5497)"/>
<path d="M102.586 75.5519V68.752H103.807V74.5188H106.812V75.5519H102.586ZM107.789 75.5519V68.752H112.212V69.7758H109.01V71.6354H111.978V72.6591H109.01V74.5188H112.231V75.5519H107.789ZM115.697 75.5519H113.386V68.752H115.734C117.763 68.752 118.993 70.0294 118.993 72.1426C118.993 74.2652 117.763 75.5519 115.697 75.5519ZM114.607 74.4906H115.631C117.049 74.4906 117.773 73.711 117.773 72.1426C117.773 70.5835 117.049 69.8133 115.669 69.8133H114.607V74.4906ZM126.498 68.6957V74.3215H122.459V68.6957H126.498ZM123.492 69.5128V73.4856H125.483V69.5128H123.492ZM129.071 67.8974V76.3972H128.019V67.8974H129.071ZM137.402 67.8974V76.3878H136.369V67.8974H137.402ZM131.842 68.7239V73.3635C133.035 73.3447 134.303 73.2367 135.608 72.9785L135.739 73.8519C134.246 74.1619 132.856 74.2558 131.541 74.2558H130.809V68.7239H131.842ZM145.235 68.6863V70.8934H147.001V67.8974H148.034V76.3972H147.001V71.7387H145.235V74.2933H141.234V68.6863H145.235ZM142.276 69.5034V73.4668H144.211V69.5034H142.276ZM152.561 68.7239C152.551 69.6443 153.246 70.452 154.618 70.7619L154.139 71.5884C153.124 71.3348 152.41 70.8089 152.035 70.0951C151.645 70.884 150.908 71.4851 149.875 71.7575L149.377 70.9404C150.757 70.6023 151.471 69.7006 151.471 68.7239V68.2543H152.561V68.7239ZM156.327 67.9068V76.3784H155.294V67.9068H156.327ZM149.236 72.368C150.786 72.368 152.908 72.3492 154.74 72.0956L154.815 72.8376C154.082 72.9785 153.321 73.0724 152.579 73.1287V76.1248H151.528V73.1851C150.748 73.218 150.011 73.2227 149.367 73.2227L149.236 72.368ZM165.287 72.1614V72.9972H161.925V73.6829H164.357V76.2845H158.543V73.6829H160.891V72.9972H157.529V72.1614H165.287ZM159.567 74.5V75.4392H163.324V74.5H159.567ZM164.329 68.0758V70.236H159.548V70.8371H164.498V71.6636H158.515V69.4846H163.286V68.8647H158.487V68.0758H164.329ZM172.519 69.062C172.519 70.3769 173.805 71.6917 175.581 72.0017L175.111 72.8751C173.688 72.5746 172.523 71.7152 171.974 70.5741C171.411 71.7058 170.246 72.5699 168.828 72.8751L168.367 72.0017C170.124 71.6824 171.401 70.3675 171.411 69.062V68.4327H172.519V69.062ZM175.891 74.4436V75.3077H168.133V74.4436H175.891ZM180.098 68.6018V69.4283H177.769V70.3205H180.014V71.1376H177.769V72.0768C178.807 72.0674 179.525 72.0299 180.352 71.8796L180.464 72.7155C179.469 72.8939 178.642 72.9221 177.327 72.9221H176.764V68.6018H180.098ZM183.705 67.9068V74.2464H182.709V71.147H181.826V74.0398H180.85V68.0664H181.826V70.3017H182.709V67.9068H183.705ZM183.939 75.3734V76.2187H178.023V73.5044H179.065V75.3734H183.939ZM191.65 71.8796V72.7155H185.696V68.6393H191.585V69.4846H186.729V71.8796H191.65ZM192.514 74.4436V75.3077H184.757V74.4436H192.514Z" fill="black"/>
<path d="M104.455 95.0712C103.378 95.0712 102.564 94.4055 102.523 93.4933H103.238C103.296 94.0275 103.814 94.422 104.455 94.422C105.227 94.422 105.786 93.8549 105.786 93.1071C105.786 92.3346 105.202 91.7675 104.405 91.7593C103.904 91.7511 103.518 91.9072 103.296 92.2935H102.581L103 89.0392H106.221V89.6966H103.616L103.394 91.4388H103.452C103.715 91.2334 104.118 91.0937 104.537 91.0937C105.671 91.0937 106.509 91.9319 106.509 93.0906C106.509 94.2412 105.638 95.0712 104.455 95.0712ZM107.388 93.7727V93.1646L110.068 89.0392H110.98V93.1235H111.81V93.7727H110.98V94.989H110.273V93.7727H107.388ZM108.186 93.1235H110.273V89.976H110.199L108.186 93.0742V93.1235ZM113.453 94.4384L112.812 96.6737H112.204L112.656 94.4384H113.453ZM116.42 95.0712C115.097 95.0712 114.341 93.9618 114.341 92.0141C114.341 90.0828 115.113 88.957 116.42 88.957C117.727 88.957 118.499 90.0828 118.499 92.0141C118.499 93.9618 117.735 95.0712 116.42 95.0712ZM116.42 94.4138C117.275 94.4138 117.776 93.5509 117.776 92.0141C117.776 90.4773 117.275 89.598 116.42 89.598C115.565 89.598 115.056 90.4773 115.056 92.0141C115.056 93.5509 115.557 94.4138 116.42 94.4138ZM121.433 95.0712C120.11 95.0712 119.354 93.9618 119.354 92.0141C119.354 90.0828 120.126 88.957 121.433 88.957C122.74 88.957 123.512 90.0828 123.512 92.0141C123.512 93.9618 122.748 95.0712 121.433 95.0712ZM121.433 94.4138C122.288 94.4138 122.789 93.5509 122.789 92.0141C122.789 90.4773 122.288 89.598 121.433 89.598C120.578 89.598 120.069 90.4773 120.069 92.0141C120.069 93.5509 120.57 94.4138 121.433 94.4138ZM126.446 95.0712C125.123 95.0712 124.367 93.9618 124.367 92.0141C124.367 90.0828 125.139 88.957 126.446 88.957C127.753 88.957 128.525 90.0828 128.525 92.0141C128.525 93.9618 127.761 95.0712 126.446 95.0712ZM126.446 94.4138C127.301 94.4138 127.802 93.5509 127.802 92.0141C127.802 90.4773 127.301 89.598 126.446 89.598C125.591 89.598 125.082 90.4773 125.082 92.0141C125.082 93.5509 125.583 94.4138 126.446 94.4138ZM135.272 88.3571V93.9042H134.623V93.1482H133.111V92.6797H134.623V88.3571H135.272ZM135.453 94.9561V95.4985H130.259V93.3618H130.908V94.9561H135.453ZM129.207 91.7429C130.572 91.7347 132.396 91.7265 133.966 91.5292L134.007 91.9976C133.353 92.1004 132.671 92.1661 132.001 92.2031V93.6495H131.352V92.236C130.613 92.2688 129.91 92.273 129.298 92.2688L129.207 91.7429ZM131.607 88.6529C132.675 88.6529 133.407 89.1624 133.415 89.9267C133.407 90.7074 132.675 91.1923 131.607 91.1923C130.53 91.1923 129.799 90.7074 129.799 89.9267C129.799 89.1624 130.53 88.6529 131.607 88.6529ZM131.607 89.146C130.892 89.1378 130.407 89.4583 130.415 89.9267C130.407 90.4033 130.892 90.7156 131.607 90.7156C132.297 90.7156 132.79 90.4033 132.799 89.9267C132.79 89.4583 132.297 89.1378 131.607 89.146Z" fill="#2D2D2D"/>
<path fill-rule="evenodd" clip-rule="evenodd" d="M214.343 69.4925C213.462 68.2694 211.789 68.0842 210.684 69.0703C209.556 70.0772 209.487 71.8828 210.538 72.9812L214.961 77.4404L219.384 72.9812C220.436 71.8828 220.366 70.0772 219.238 69.0703C218.133 68.0842 216.46 68.2694 215.579 69.4925L215.4 69.7412C215.299 69.8823 215.135 69.966 214.961 69.966C214.787 69.966 214.624 69.8823 214.522 69.7412L214.343 69.4925ZM214.961 68.5381C216.264 67.0948 218.471 66.9353 219.959 68.2631C221.548 69.6814 221.639 72.1958 220.162 73.7336L220.156 73.7399L215.665 78.2678C215.278 78.6666 214.645 78.6666 214.258 78.2678L209.767 73.7399L209.761 73.7336C208.284 72.1958 208.375 69.6814 209.964 68.2631C211.451 66.9353 213.658 67.0948 214.961 68.5381Z" fill="#2D2D2D"/>
</g>
<g filter="url(#filter2_dd_360_5497)">
<rect x="39.4428" y="128.963" width="192.349" height="62.5135" rx="7.21309" fill="white"/>
<g clip-path="url(#clip0_360_5497)">
<rect x="46.6559" y="136.176" width="48.0873" height="48.0873" rx="4.80873" fill="#FEEEE4"/>
<path d="M85.0879 160.002C85.1208 160.475 84.7332 160.861 84.259 160.861H71.7354V183.945C71.7354 184.261 71.9917 184.517 72.3078 184.517H77.4597C77.7758 184.517 78.0321 184.773 78.0321 185.089V186.807C78.0321 187.123 77.7758 187.379 77.4597 187.379H64.0111C63.695 187.379 63.4387 187.123 63.4387 186.807V185.089C63.4387 184.773 63.695 184.517 64.0111 184.517H69.163C69.4791 184.517 69.7354 184.261 69.7354 183.945V160.861H57.2118C56.7376 160.861 56.35 160.475 56.3829 160.002C56.8637 153.091 63.1057 147.623 70.7354 147.623C78.3651 147.623 84.6071 153.091 85.0879 160.002Z" fill="url(#paint4_linear_360_5497)"/>
</g>
<path d="M104.774 139.047C106.079 139.047 107.075 139.892 107.084 141.095C107.075 142.132 106.342 142.898 105.309 143.095V144.344C106.014 144.311 106.723 144.255 107.385 144.166L107.46 144.945C105.685 145.265 103.741 145.274 102.285 145.255L102.135 144.401C102.773 144.401 103.506 144.401 104.267 144.382V143.095C103.201 142.917 102.463 142.146 102.473 141.095C102.463 139.892 103.44 139.047 104.774 139.047ZM104.774 139.93C104.032 139.939 103.487 140.381 103.487 141.095C103.487 141.808 104.032 142.259 104.774 142.25C105.506 142.259 106.051 141.808 106.051 141.095C106.051 140.381 105.506 139.939 104.774 139.93ZM108.916 138.521V141.912H110.146V142.795H108.916V147.012H107.873V138.521H108.916ZM117.613 138.521V147.021H116.561V138.521H117.613ZM113.039 139.141C114.316 139.141 115.246 140.306 115.255 142.137C115.246 143.987 114.316 145.143 113.039 145.143C111.752 145.143 110.822 143.987 110.822 142.137C110.822 140.306 111.752 139.141 113.039 139.141ZM113.039 140.08C112.316 140.08 111.827 140.841 111.827 142.137C111.827 143.443 112.316 144.203 113.039 144.203C113.753 144.203 114.241 143.443 114.241 142.137C114.241 140.841 113.753 140.08 113.039 140.08ZM125.756 142.503V143.339H119.801V139.263H125.69V140.108H120.834V142.503H125.756ZM126.62 145.067V145.931H118.862V145.067H126.62ZM132.499 140.052C132.499 141.095 133.175 142.071 134.5 142.475L134.002 143.292C133.049 142.996 132.372 142.391 132.001 141.621C131.626 142.513 130.907 143.222 129.888 143.565L129.362 142.738C130.734 142.287 131.447 141.188 131.447 140.061V139.958H129.653V139.113H134.265V139.958H132.499V140.052ZM136.153 138.521V140.559H137.336V141.414H136.153V143.583H135.11V138.521H136.153ZM133.391 143.771C135.148 143.771 136.228 144.363 136.237 145.377C136.228 146.401 135.148 147.002 133.391 147.002C131.616 147.002 130.518 146.401 130.518 145.377C130.518 144.363 131.616 143.771 133.391 143.771ZM133.391 144.588C132.227 144.588 131.56 144.861 131.56 145.377C131.56 145.903 132.227 146.185 133.391 146.185C134.556 146.185 135.204 145.903 135.204 145.377C135.204 144.861 134.556 144.588 133.391 144.588ZM142.154 139.686C142.154 141.001 143.441 142.316 145.216 142.625L144.746 143.499C143.324 143.198 142.159 142.339 141.61 141.198C141.046 142.33 139.881 143.194 138.463 143.499L138.003 142.625C139.759 142.306 141.037 140.991 141.046 139.686V139.056H142.154V139.686ZM145.526 145.067V145.931H137.768V145.067H145.526ZM149.734 139.226V140.052H147.404V140.944H149.649V141.761H147.404V142.701C148.442 142.691 149.161 142.654 149.987 142.503L150.1 143.339C149.104 143.518 148.278 143.546 146.963 143.546H146.399V139.226H149.734ZM153.34 138.531V144.87H152.345V141.771H151.462V144.664H150.485V138.69H151.462V140.926H152.345V138.531H153.34ZM153.575 145.997V146.842H147.658V144.128H148.701V145.997H153.575ZM161.286 142.503V143.339H155.331V139.263H161.22V140.108H156.364V142.503H161.286ZM162.15 145.067V145.931H154.392V145.067H162.15Z" fill="#555555"/>
<path d="M104.455 165.695C103.378 165.695 102.564 165.029 102.523 164.117H103.238C103.296 164.651 103.814 165.046 104.455 165.046C105.227 165.046 105.786 164.479 105.786 163.731C105.786 162.958 105.202 162.391 104.405 162.383C103.904 162.375 103.518 162.531 103.296 162.917H102.581L103 159.663H106.221V160.32H103.616L103.394 162.063H103.452C103.715 161.857 104.118 161.717 104.537 161.717C105.671 161.717 106.509 162.556 106.509 163.714C106.509 164.865 105.638 165.695 104.455 165.695ZM109.525 165.695C108.276 165.695 107.405 165.005 107.413 164.035C107.405 163.262 107.939 162.63 108.621 162.523V162.49C108.029 162.35 107.643 161.808 107.643 161.159C107.643 160.246 108.44 159.581 109.525 159.581C110.61 159.581 111.407 160.246 111.415 161.159C111.407 161.808 111.013 162.35 110.429 162.49V162.523C111.103 162.63 111.637 163.262 111.645 164.035C111.637 165.005 110.766 165.695 109.525 165.695ZM109.525 165.046C110.38 165.046 110.906 164.618 110.906 163.994C110.906 163.336 110.322 162.852 109.525 162.852C108.728 162.852 108.136 163.336 108.153 163.994C108.136 164.618 108.67 165.046 109.525 165.046ZM109.525 162.227C110.199 162.227 110.692 161.816 110.692 161.216C110.692 160.624 110.224 160.222 109.525 160.222C108.818 160.222 108.358 160.624 108.358 161.216C108.358 161.816 108.843 162.227 109.525 162.227ZM113.388 165.062L112.747 167.297H112.138L112.59 165.062H113.388ZM116.354 165.695C115.031 165.695 114.275 164.586 114.275 162.638C114.275 160.707 115.048 159.581 116.354 159.581C117.661 159.581 118.433 160.707 118.433 162.638C118.433 164.586 117.669 165.695 116.354 165.695ZM116.354 165.038C117.209 165.038 117.71 164.175 117.71 162.638C117.71 161.101 117.209 160.222 116.354 160.222C115.5 160.222 114.99 161.101 114.99 162.638C114.99 164.175 115.491 165.038 116.354 165.038ZM121.367 165.695C120.044 165.695 119.288 164.586 119.288 162.638C119.288 160.707 120.061 159.581 121.367 159.581C122.674 159.581 123.446 160.707 123.446 162.638C123.446 164.586 122.682 165.695 121.367 165.695ZM121.367 165.038C122.222 165.038 122.723 164.175 122.723 162.638C122.723 161.101 122.222 160.222 121.367 160.222C120.513 160.222 120.003 161.101 120.003 162.638C120.003 164.175 120.504 165.038 121.367 165.038ZM126.38 165.695C125.057 165.695 124.301 164.586 124.301 162.638C124.301 160.707 125.074 159.581 126.38 159.581C127.687 159.581 128.459 160.707 128.459 162.638C128.459 164.586 127.695 165.695 126.38 165.695ZM126.38 165.038C127.235 165.038 127.736 164.175 127.736 162.638C127.736 161.101 127.235 160.222 126.38 160.222C125.526 160.222 125.016 161.101 125.016 162.638C125.016 164.175 125.517 165.038 126.38 165.038ZM135.206 158.981V164.528H134.557V163.772H133.045V163.304H134.557V158.981H135.206ZM135.387 165.58V166.122H130.193V163.986H130.843V165.58H135.387ZM129.142 162.367C130.506 162.358 132.33 162.35 133.9 162.153L133.941 162.621C133.288 162.724 132.605 162.79 131.936 162.827V164.273H131.286V162.86C130.547 162.893 129.844 162.897 129.232 162.893L129.142 162.367ZM131.541 159.277C132.61 159.277 133.341 159.786 133.349 160.55C133.341 161.331 132.61 161.816 131.541 161.816C130.465 161.816 129.733 161.331 129.733 160.55C129.733 159.786 130.465 159.277 131.541 159.277ZM131.541 159.77C130.826 159.762 130.341 160.082 130.35 160.55C130.341 161.027 130.826 161.339 131.541 161.339C132.232 161.339 132.725 161.027 132.733 160.55C132.725 160.082 132.232 159.762 131.541 159.77Z" fill="#717171"/>
<path fill-rule="evenodd" clip-rule="evenodd" d="M214.343 140.116C213.462 138.893 211.789 138.708 210.684 139.694C209.556 140.701 209.487 142.507 210.538 143.605L214.961 148.064L219.384 143.605C220.436 142.507 220.366 140.701 219.238 139.694C218.133 138.708 216.46 138.893 215.579 140.116L215.4 140.365C215.299 140.506 215.135 140.59 214.961 140.59C214.787 140.59 214.624 140.506 214.522 140.365L214.343 140.116ZM214.961 139.162C216.264 137.719 218.471 137.559 219.959 138.887C221.548 140.305 221.639 142.82 220.162 144.357L220.156 144.364L215.665 148.892C215.278 149.29 214.645 149.29 214.258 148.892L209.767 144.364L209.761 144.357C208.284 142.82 208.375 140.305 209.964 138.887C211.451 137.559 213.658 137.719 214.961 139.162Z" fill="#717171"/>
</g>
<g filter="url(#filter3_b_360_5497)">
<g filter="url(#filter4_d_360_5497)">
<mask id="path-21-inside-1_360_5497" fill="white">
<path fill-rule="evenodd" clip-rule="evenodd" d="M136.885 41.1822C136.39 42.2848 134.824 42.2848 134.329 41.1822L132.462 37.0232H48.0554C40.9205 37.0232 35.1365 31.2392 35.1365 24.1043C35.1365 16.9693 40.9205 11.1853 48.0554 11.1853H223.179C230.314 11.1853 236.098 16.9693 236.098 24.1043C236.098 31.2392 230.314 37.0232 223.179 37.0232H138.753L136.885 41.1822Z"/>
</mask>
<path fill-rule="evenodd" clip-rule="evenodd" d="M136.885 41.1822C136.39 42.2848 134.824 42.2848 134.329 41.1822L132.462 37.0232H48.0554C40.9205 37.0232 35.1365 31.2392 35.1365 24.1043C35.1365 16.9693 40.9205 11.1853 48.0554 11.1853H223.179C230.314 11.1853 236.098 16.9693 236.098 24.1043C236.098 31.2392 230.314 37.0232 223.179 37.0232H138.753L136.885 41.1822Z" fill="url(#paint5_linear_360_5497)" fill-opacity="0.2" shape-rendering="crispEdges"/>
<path d="M134.329 41.1822L133.544 41.535V41.535L134.329 41.1822ZM136.885 41.1822L136.099 40.8293V40.8293L136.885 41.1822ZM132.462 37.0232V36.162H133.019L133.247 36.6704L132.462 37.0232ZM138.753 37.0232L137.967 36.6704L138.195 36.162H138.753V37.0232ZM135.115 40.8293C135.306 41.2541 135.909 41.2541 136.099 40.8293L137.671 41.535C136.871 43.3156 134.343 43.3156 133.544 41.535L135.115 40.8293ZM133.247 36.6704L135.115 40.8293L133.544 41.535L131.676 37.376L133.247 36.6704ZM48.0554 36.162H132.462V37.8845H48.0554V36.162ZM35.9977 24.1043C35.9977 30.7636 41.3962 36.162 48.0554 36.162V37.8845C40.4448 37.8845 34.2752 31.7149 34.2752 24.1043H35.9977ZM48.0554 12.0466C41.3962 12.0466 35.9977 17.445 35.9977 24.1043H34.2752C34.2752 16.4936 40.4448 10.324 48.0554 10.324V12.0466ZM223.179 12.0466H48.0554V10.324H223.179V12.0466ZM235.237 24.1043C235.237 17.445 229.839 12.0466 223.179 12.0466V10.324C230.79 10.324 236.96 16.4936 236.96 24.1043H235.237ZM223.179 36.162C229.839 36.162 235.237 30.7636 235.237 24.1043H236.96C236.96 31.7149 230.79 37.8845 223.179 37.8845V36.162ZM138.753 36.162H223.179V37.8845H138.753V36.162ZM136.099 40.8293L137.967 36.6704L139.538 37.376L137.671 41.535L136.099 40.8293Z" fill="url(#paint6_linear_360_5497)" mask="url(#path-21-inside-1_360_5497)"/>
</g>
<path d="M79.1406 20.0356V26.5378H78.2308V25.7142H76.5071V25.0726H78.2308V20.0356H79.1406ZM79.3512 27.6869V28.4243H73.1555V25.9057H74.0556V27.6869H79.3512ZM71.968 23.9522C73.5577 23.9426 75.6932 23.9235 77.5222 23.6936L77.5797 24.3448C76.8471 24.4645 76.0762 24.5459 75.3197 24.5938V26.2696H74.41V24.6417C73.5768 24.68 72.7772 24.6848 72.083 24.68L71.968 23.9522ZM74.7739 20.3611C76.0283 20.3611 76.8998 20.9644 76.8998 21.8742C76.8998 22.7839 76.0283 23.3681 74.7739 23.3681C73.5002 23.3681 72.6384 22.7839 72.6384 21.8742C72.6384 20.9644 73.5002 20.3611 74.7739 20.3611ZM74.7739 21.0411C74.0078 21.0315 73.4906 21.3571 73.5002 21.8742C73.4906 22.3817 74.0078 22.6977 74.7739 22.6977C75.5112 22.6977 76.0283 22.3817 76.0379 21.8742C76.0283 21.3571 75.5112 21.0315 74.7739 21.0411ZM87.1654 20.026V23.5021H88.5444V24.2586H87.1654V28.6062H86.2652V20.026H87.1654ZM85.5183 21.3666V22.1136H80.4334V21.3666H82.5497V20.1409H83.4594V21.3666H85.5183ZM83.0093 22.7456C84.2351 22.7456 85.1352 23.5692 85.1448 24.7374C85.1352 25.9153 84.2351 26.7293 83.0093 26.7389C81.774 26.7293 80.8739 25.9153 80.8739 24.7374C80.8739 23.5692 81.774 22.7456 83.0093 22.7456ZM83.0093 23.4925C82.2816 23.4925 81.7357 24.0001 81.7453 24.7374C81.7357 25.4844 82.2816 25.9823 83.0093 25.9728C83.7371 25.9823 84.2734 25.4844 84.2734 24.7374C84.2734 24.0001 83.7371 23.4925 83.0093 23.4925ZM92.1067 22.2093C92.0971 23.7798 93.0451 25.3503 94.3762 25.944L93.8304 26.6623C92.844 26.193 92.0636 25.2306 91.6662 24.0575C91.264 25.312 90.4739 26.351 89.4445 26.8538L88.8891 26.0877C90.2393 25.4844 91.1874 23.8469 91.1874 22.2093V20.7442H92.1067V22.2093ZM96.0616 20.026V28.6254H95.1519V20.026H96.0616ZM104.374 22.5349V23.2627H98.4652V20.3324H99.3654V22.5349H104.374ZM105.274 24.3448V25.0726H97.4214V24.3448H105.274ZM104.431 27.6582V28.4051H98.3982V25.8866H99.3079V27.6582H104.431ZM111.326 21.5965C111.326 22.7552 112.102 23.8852 113.394 24.3352L112.896 25.0439C111.958 24.6848 111.259 23.9761 110.895 23.0808C110.522 24.0767 109.789 24.8619 108.779 25.245L108.29 24.5268C109.621 24.048 110.416 22.8605 110.426 21.5677V20.5527H111.326V21.5965ZM115.453 20.0356V26.4324H114.544V22.736H112.734V21.9891H114.544V20.0356H115.453ZM115.645 27.6869V28.4243H109.851V25.7142H110.771V27.6869H115.645ZM124.599 23.5787V24.3065H121.132V25.0535H123.612V27.0644H118.613V27.821H123.852V28.52H117.723V26.4037H122.712V25.7525H117.713V25.0535H120.222V24.3065H116.775V23.5787H124.599ZM123.593 20.3037V22.9467H117.78V20.3037H123.593ZM118.671 21.0219V22.2285H122.683V21.0219H118.671ZM134.759 20.0356V25.2929H133.849V20.0356H134.759ZM132.02 20.5622V22.9946H128.984V24.0671C130.483 24.0528 131.589 24.0097 132.891 23.8086L133.006 24.5459C131.608 24.7757 130.43 24.8141 128.812 24.8141H128.094V22.2955H131.12V21.3092H128.075V20.5622H132.02ZM131.896 25.4557C133.705 25.4557 134.816 26.0206 134.816 27.0261C134.816 28.0125 133.705 28.5966 131.896 28.5871C130.076 28.5966 128.975 28.0125 128.975 27.0261C128.975 26.0206 130.076 25.4557 131.896 25.4557ZM131.896 26.1739C130.622 26.1739 129.875 26.4803 129.875 27.0261C129.875 27.572 130.622 27.8688 131.896 27.8688C133.169 27.8688 133.907 27.572 133.907 27.0261C133.907 26.4803 133.169 26.1739 131.896 26.1739ZM143.023 20.8591V21.9029C143.023 23.1574 143.023 24.3352 142.65 26.1164L141.749 26.0302C141.931 25.245 142.027 24.5555 142.075 23.9139L136.923 24.1916L136.808 23.4447L142.123 23.2436C142.137 22.7839 142.137 22.3434 142.142 21.9029V21.606H137.048V20.8591H143.023ZM143.942 26.7101V27.4571H136.119V26.7101H143.942ZM152.436 23.9618V24.6608H144.584V23.9618H152.436ZM151.469 25.2641V27.1506H146.432V27.8593H151.737V28.5009H145.522V26.5473H150.569V25.9153H145.513V25.2641H151.469ZM151.45 20.2462V22.104H146.49V22.7552H151.594V23.3968H145.589V21.5007H150.54V20.8878H145.57V20.2462H151.45ZM162.147 20.026V23.4447H163.478V24.2012H162.147V28.5966H161.237V20.026H162.147ZM159.906 20.9261C159.896 23.4064 158.805 25.6185 155.98 27.0166L155.472 26.3079C157.622 25.2354 158.79 23.6841 158.977 21.6827H155.903V20.9261H159.906ZM171.1 20.026V28.6062H170.191V24.996H168.544V24.2395H170.191V23.1765H168.544V22.42H170.191V20.026H171.1ZM167.002 22.4392C167.002 23.7798 167.921 25.4174 169.204 26.059L168.658 26.758C167.715 26.2744 166.954 25.245 166.571 24.0863C166.188 25.3551 165.417 26.442 164.464 26.9687L163.861 26.2792C165.154 25.6376 166.073 23.9809 166.082 22.4392V21.6348H164.186V20.8878H168.888V21.6348H167.002V22.4392ZM179.163 20.0356V22.286H180.389V23.0329H179.163V25.2354H178.254V20.0356H179.163ZM175.266 25.8004C175.266 26.4995 175.635 27.2512 176.415 27.6965C177.181 27.2464 177.564 26.4803 177.564 25.8004V25.5993H178.445V25.8004C178.445 26.6527 179.039 27.4762 180.159 27.821L179.709 28.5009C178.876 28.2232 178.297 27.6773 177.995 26.9974C177.722 27.6773 177.21 28.2758 176.415 28.5775C175.606 28.271 175.094 27.6773 174.835 26.9974C174.524 27.6725 173.949 28.2184 173.14 28.5009L172.69 27.821C173.801 27.4666 174.385 26.6431 174.385 25.8004V25.5993H175.266V25.8004ZM172.403 24.2012C173.049 24.1964 173.801 24.1964 174.586 24.1725V23.4542C173.552 23.325 172.872 22.7217 172.881 21.8933C172.872 20.9357 173.743 20.2941 175.017 20.2941C176.281 20.2941 177.152 20.9357 177.162 21.8933C177.152 22.7073 176.496 23.3058 175.496 23.4447V24.1341C176.257 24.0958 177.023 24.0336 177.727 23.9235L177.804 24.5747C176.003 24.8907 173.983 24.9194 172.498 24.9194L172.403 24.2012ZM175.017 20.974C174.241 20.9644 173.724 21.3283 173.734 21.8933C173.724 22.4392 174.241 22.8126 175.017 22.8126C175.783 22.8126 176.3 22.4392 176.3 21.8933C176.3 21.3283 175.783 20.9644 175.017 20.974ZM183.214 20.6676C184.378 20.6676 185.23 21.6539 185.369 23.2436H187.14V20.026H188.041V28.6254H187.14V23.9809H185.378C185.278 25.652 184.406 26.691 183.214 26.691C181.931 26.691 181.031 25.5227 181.04 23.6745C181.031 21.8359 181.931 20.6676 183.214 20.6676ZM183.214 21.4816C182.438 21.4816 181.902 22.3243 181.902 23.6745C181.902 25.0343 182.438 25.877 183.214 25.877C183.99 25.877 184.526 25.0343 184.526 23.6745C184.526 22.3243 183.99 21.4816 183.214 21.4816ZM197.214 26.7772V27.5337H189.362V26.7772H191.239V24.5363C190.535 24.1485 190.109 23.5308 190.109 22.7648C190.109 21.4145 191.43 20.5239 193.269 20.5239C195.117 20.5239 196.439 21.4145 196.439 22.7648C196.439 23.5213 196.027 24.1294 195.338 24.5172V26.7772H197.214ZM193.269 21.2517C191.919 21.2517 190.99 21.8359 190.99 22.7648C190.99 23.6841 191.919 24.2874 193.269 24.2874C194.61 24.2874 195.558 23.6841 195.558 22.7648C195.558 21.8359 194.61 21.2517 193.269 21.2517ZM192.139 26.7772H194.418V24.8619C194.069 24.9529 193.681 24.996 193.269 24.996C192.867 24.996 192.484 24.9529 192.139 24.8715V26.7772ZM199.417 20.8591L199.331 25.7908H198.383L198.297 20.8591H199.417ZM198.862 27.8593C198.488 27.8593 198.172 27.5528 198.182 27.1794C198.172 26.8059 198.488 26.4995 198.862 26.4995C199.225 26.4995 199.541 26.8059 199.541 27.1794C199.541 27.5528 199.225 27.8593 198.862 27.8593Z" fill="#4227E7"/>
</g>
<defs>
<filter id="filter0_dd_360_5497" x="43.1749" y="172.81" width="184.885" height="74.735" filterUnits="userSpaceOnUse" color-interpolation-filters="sRGB">
<feFlood flood-opacity="0" result="BackgroundImageFix"/>
<feColorMatrix in="SourceAlpha" type="matrix" values="0 0 0 0 0 0 0 0 0 0 0 0 0 0 0 0 0 0 127 0" result="hardAlpha"/>
<feOffset dy="0.497048"/>
<feGaussianBlur stdDeviation="4.59341"/>
<feComposite in2="hardAlpha" operator="out"/>
<feColorMatrix type="matrix" values="0 0 0 0 0 0 0 0 0 0 0 0 0 0 0 0 0 0 0.04 0"/>
<feBlend mode="normal" in2="BackgroundImageFix" result="effect1_dropShadow_360_5497"/>
<feColorMatrix in="SourceAlpha" type="matrix" values="0 0 0 0 0 0 0 0 0 0 0 0 0 0 0 0 0 0 127 0" result="hardAlpha"/>
<feOffset dy="6.95868"/>
<feGaussianBlur stdDeviation="2.48524"/>
<feComposite in2="hardAlpha" operator="out"/>
<feColorMatrix type="matrix" values="0 0 0 0 0 0 0 0 0 0 0 0 0 0 0 0 0 0 0.08 0"/>
<feBlend mode="normal" in2="effect1_dropShadow_360_5497" result="effect2_dropShadow_360_5497"/>
<feBlend mode="normal" in="SourceGraphic" in2="effect2_dropShadow_360_5497" result="shape"/>
</filter>
<filter id="filter1_dd_360_5497" x="30.256" y="50.8744" width="210.723" height="87.203" filterUnits="userSpaceOnUse" color-interpolation-filters="sRGB">
<feFlood flood-opacity="0" result="BackgroundImageFix"/>
<feColorMatrix in="SourceAlpha" type="matrix" values="0 0 0 0 0 0 0 0 0 0 0 0 0 0 0 0 0 0 127 0" result="hardAlpha"/>
<feOffset dy="0.574177"/>
<feGaussianBlur stdDeviation="4.01924"/>
<feComposite in2="hardAlpha" operator="out"/>
<feColorMatrix type="matrix" values="0 0 0 0 0 0 0 0 0 0 0 0 0 0 0 0 0 0 0.08 0"/>
<feBlend mode="normal" in2="BackgroundImageFix" result="effect1_dropShadow_360_5497"/>
<feColorMatrix in="SourceAlpha" type="matrix" values="0 0 0 0 0 0 0 0 0 0 0 0 0 0 0 0 0 0 127 0" result="hardAlpha"/>
<feOffset dy="8.03847"/>
<feGaussianBlur stdDeviation="4.59341"/>
<feComposite in2="hardAlpha" operator="out"/>
<feColorMatrix type="matrix" values="0 0 0 0 0 0 0 0 0 0 0 0 0 0 0 0 0 0 0.08 0"/>
<feBlend mode="normal" in2="effect1_dropShadow_360_5497" result="effect2_dropShadow_360_5497"/>
<feBlend mode="normal" in="SourceGraphic" in2="effect2_dropShadow_360_5497" result="shape"/>
</filter>
<filter id="filter2_dd_360_5497" x="30.256" y="121.498" width="210.723" height="87.203" filterUnits="userSpaceOnUse" color-interpolation-filters="sRGB">
<feFlood flood-opacity="0" result="BackgroundImageFix"/>
<feColorMatrix in="SourceAlpha" type="matrix" values="0 0 0 0 0 0 0 0 0 0 0 0 0 0 0 0 0 0 127 0" result="hardAlpha"/>
<feOffset dy="0.574177"/>
<feGaussianBlur stdDeviation="4.01924"/>
<feComposite in2="hardAlpha" operator="out"/>
<feColorMatrix type="matrix" values="0 0 0 0 0 0 0 0 0 0 0 0 0 0 0 0 0 0 0.08 0"/>
<feBlend mode="normal" in2="BackgroundImageFix" result="effect1_dropShadow_360_5497"/>
<feColorMatrix in="SourceAlpha" type="matrix" values="0 0 0 0 0 0 0 0 0 0 0 0 0 0 0 0 0 0 127 0" result="hardAlpha"/>
<feOffset dy="8.03847"/>
<feGaussianBlur stdDeviation="4.59341"/>
<feComposite in2="hardAlpha" operator="out"/>
<feColorMatrix type="matrix" values="0 0 0 0 0 0 0 0 0 0 0 0 0 0 0 0 0 0 0.08 0"/>
<feBlend mode="normal" in2="effect1_dropShadow_360_5497" result="effect2_dropShadow_360_5497"/>
<feBlend mode="normal" in="SourceGraphic" in2="effect2_dropShadow_360_5497" result="shape"/>
</filter>
<filter id="filter3_b_360_5497" x="29.3947" y="5.44354" width="212.445" height="42.3074" filterUnits="userSpaceOnUse" color-interpolation-filters="sRGB">
<feFlood flood-opacity="0" result="BackgroundImageFix"/>
<feGaussianBlur in="BackgroundImageFix" stdDeviation="2.87088"/>
<feComposite in2="SourceAlpha" operator="in" result="effect1_backgroundBlur_360_5497"/>
<feBlend mode="normal" in="SourceGraphic" in2="effect1_backgroundBlur_360_5497" result="shape"/>
</filter>
<filter id="filter4_d_360_5497" x="29.3947" y="5.44354" width="212.445" height="42.3074" filterUnits="userSpaceOnUse" color-interpolation-filters="sRGB">
<feFlood flood-opacity="0" result="BackgroundImageFix"/>
<feColorMatrix in="SourceAlpha" type="matrix" values="0 0 0 0 0 0 0 0 0 0 0 0 0 0 0 0 0 0 127 0" result="hardAlpha"/>
<feOffset/>
<feGaussianBlur stdDeviation="2.87088"/>
<feComposite in2="hardAlpha" operator="out"/>
<feColorMatrix type="matrix" values="0 0 0 0 0.258824 0 0 0 0 0.152941 0 0 0 0 0.905882 0 0 0 0.2 0"/>
<feBlend mode="normal" in2="BackgroundImageFix" result="effect1_dropShadow_360_5497"/>
<feBlend mode="normal" in="SourceGraphic" in2="effect1_dropShadow_360_5497" result="shape"/>
</filter>
<linearGradient id="paint0_linear_360_5497" x1="241.653" y1="-3.8232" x2="241.653" y2="41.4004" gradientUnits="userSpaceOnUse">
<stop stop-color="#4227E7" stop-opacity="0.6"/>
<stop offset="1" stop-color="#4227E7"/>
</linearGradient>
<linearGradient id="paint1_linear_360_5497" x1="20.8662" y1="111.802" x2="36.0383" y2="168.425" gradientUnits="userSpaceOnUse">
<stop stop-color="#4227E7" stop-opacity="0.6"/>
<stop offset="1" stop-color="#4227E7"/>
</linearGradient>
<linearGradient id="paint2_linear_360_5497" x1="79.4509" y1="195.17" x2="79.4509" y2="217.159" gradientUnits="userSpaceOnUse">
<stop stop-color="#FF5E00" stop-opacity="0.6"/>
<stop offset="1" stop-color="#FF5E00"/>
</linearGradient>
<linearGradient id="paint3_linear_360_5497" x1="70.7354" y1="76.9996" x2="70.7354" y2="102.401" gradientUnits="userSpaceOnUse">
<stop stop-color="#FF5E00" stop-opacity="0.6"/>
<stop offset="1" stop-color="#FF5E00"/>
</linearGradient>
<linearGradient id="paint4_linear_360_5497" x1="70.7354" y1="147.623" x2="70.7354" y2="173.025" gradientUnits="userSpaceOnUse">
<stop stop-color="#FF5E00" stop-opacity="0.6"/>
<stop offset="1" stop-color="#FF5E00"/>
</linearGradient>
<linearGradient id="paint5_linear_360_5497" x1="240.692" y1="35.3716" x2="30.5431" y2="9.53369" gradientUnits="userSpaceOnUse">
<stop stop-color="#4227E7"/>
<stop offset="1" stop-color="#4227E7" stop-opacity="0.6"/>
</linearGradient>
<linearGradient id="paint6_linear_360_5497" x1="255.333" y1="41.9747" x2="190.728" y2="124.778" gradientUnits="userSpaceOnUse">
<stop stop-color="#4227E7" stop-opacity="0.4"/>
<stop offset="0.405" stop-color="#4227E7" stop-opacity="0.6"/>
<stop offset="1" stop-color="white" stop-opacity="0.8"/>
</linearGradient>
<clipPath id="clip0_360_5497">
<rect x="46.6559" y="136.176" width="48.0873" height="48.0873" rx="4.80873" fill="white"/>
</clipPath>
</defs>
</svg>
