<svg width="122" height="90" viewBox="0 0 122 90" fill="none" xmlns="http://www.w3.org/2000/svg">
<path fill-rule="evenodd" clip-rule="evenodd" d="M43.3129 9.57876C36.9167 4.93415 21.1132 -5.09312 14.3825 3.14322C11.883 6.32162 10.6392 14.1663 25.6594 20.1177H27.955C17.7167 15.5198 18.6918 9.76353 20.5689 7.36929C25.8535 0.882743 38.2615 8.34154 43.2834 11.9994V20.1177H43.3129V9.57876Z" fill="#C05106"/>
<path fill-rule="evenodd" clip-rule="evenodd" d="M43.2242 9.57876C49.6204 4.93415 65.4239 -5.09312 72.1547 3.14322C74.6541 6.32162 75.8979 14.1663 60.8777 20.1177H58.5823C68.8204 15.5199 67.8453 9.76361 65.9682 7.36938C60.6836 0.882831 48.2756 8.34163 43.2537 11.9995V20.1177H43.2242V9.57876Z" fill="#C05106"/>
<g filter="url(#filter0_ii_21_5106)">
<rect x="0.654297" y="10.8777" width="85.2562" height="74.3926" rx="5.90417" fill="#FF5E00"/>
</g>
<rect x="34.4258" y="10.8777" width="17.7125" height="74.3926" fill="#C05106"/>
<rect x="0.654297" y="59.1738" width="16.5317" height="85.2562" transform="rotate(-90 0.654297 59.1738)" fill="#C05106"/>
<ellipse cx="27.3421" cy="37.1808" rx="12.3988" ry="16.7974" fill="white"/>
<mask id="mask0_21_5106" style="mask-type:alpha" maskUnits="userSpaceOnUse" x="14" y="20" width="26" height="34">
<ellipse cx="27.3421" cy="37.1808" rx="12.3988" ry="16.7974" fill="white"/>
</mask>
<g mask="url(#mask0_21_5106)">
<ellipse cx="29.9396" cy="34.7899" rx="9.80092" ry="13.2844" fill="black"/>
</g>
<ellipse cx="59.1644" cy="37.1808" rx="12.3988" ry="16.7974" fill="white"/>
<mask id="mask1_21_5106" style="mask-type:alpha" maskUnits="userSpaceOnUse" x="46" y="20" width="26" height="34">
<ellipse cx="59.1644" cy="37.1808" rx="12.3988" ry="16.7974" fill="white"/>
</mask>
<g mask="url(#mask1_21_5106)">
<ellipse cx="61.7619" cy="34.7899" rx="9.80092" ry="13.2844" fill="black"/>
</g>
<ellipse cx="33.1862" cy="27.3503" rx="1.12179" ry="1.12179" fill="white"/>
<ellipse cx="64.9499" cy="27.3503" rx="1.12179" ry="1.12179" fill="white"/>
<g filter="url(#filter1_b_21_5106)">
<path fill-rule="evenodd" clip-rule="evenodd" d="M91.4778 44.4643C92.8524 42.0833 96.2891 42.0833 97.6637 44.4643L120.861 84.6429C122.235 87.0238 120.517 90 117.768 90H71.3736C68.6244 90 66.906 87.0238 68.2807 84.6429L91.4778 44.4643ZM91.7136 60.8929C91.7136 59.3149 92.9928 58.0357 94.5707 58.0357C96.1487 58.0357 97.4279 59.3149 97.4279 60.8929V72.8572C97.4279 74.4351 96.1487 75.7143 94.5707 75.7143C92.9928 75.7143 91.7136 74.4351 91.7136 72.8572V60.8929ZM94.5707 78.0357C92.7955 78.0357 91.3564 79.4748 91.3564 81.25C91.3564 83.0252 92.7955 84.4643 94.5707 84.4643C96.3459 84.4643 97.785 83.0252 97.785 81.25C97.785 79.4748 96.3459 78.0357 94.5707 78.0357Z" fill="url(#paint0_linear_21_5106)" fill-opacity="0.24"/>
<path d="M91.7871 44.6429C93.0243 42.5 96.1172 42.5 97.3544 44.6429L120.552 84.8214C121.789 86.9643 120.242 89.6429 117.768 89.6429H71.3736C68.8993 89.6429 67.3528 86.9643 68.59 84.8214L68.2807 84.6429L68.59 84.8214L91.7871 44.6429ZM94.5707 57.6786C92.7955 57.6786 91.3565 59.1177 91.3565 60.8929V72.8572C91.3565 74.6324 92.7955 76.0714 94.5707 76.0714C96.3459 76.0714 97.785 74.6324 97.785 72.8572V60.8929C97.785 59.1177 96.3459 57.6786 94.5707 57.6786ZM94.5707 77.6786C92.5983 77.6786 90.9993 79.2776 90.9993 81.25C90.9993 83.2225 92.5983 84.8214 94.5707 84.8214C96.5432 84.8214 98.1422 83.2225 98.1422 81.25C98.1422 79.2776 96.5432 77.6786 94.5707 77.6786Z" stroke="url(#paint1_linear_21_5106)" stroke-width="0.714286"/>
</g>
<path d="M19.7617 20.2897C22.4211 21.7728 28.7097 20.2897 32.1723 16.9643" stroke="black" stroke-width="2.29435" stroke-linecap="round" stroke-linejoin="round"/>
<path d="M66.7891 20.2897C64.1297 21.7728 57.8411 20.2897 54.3785 16.9643" stroke="black" stroke-width="2.29435" stroke-linecap="round" stroke-linejoin="round"/>
<path fill-rule="evenodd" clip-rule="evenodd" d="M68.63 53.391C68.6306 53.392 68.6309 53.3931 68.6311 53.3943L69.4982 61.6108C69.5501 62.7082 70.3646 65.462 72.4617 66.1468C73.0377 66.3148 74.4319 66.4446 75.7818 65.7795C75.7821 65.7794 75.7825 65.7795 75.7826 65.7797C75.7828 65.78 75.7832 65.7801 75.7835 65.7799C75.786 65.7783 75.7884 65.7767 75.7909 65.775C75.7934 65.7738 75.796 65.7725 75.7985 65.7713C75.7988 65.7711 75.7989 65.7707 75.7987 65.7704C75.7986 65.7702 75.7987 65.7698 75.7989 65.7697C77.0499 64.9332 77.6345 63.6608 77.7771 63.078C78.2326 60.9194 76.2549 58.8372 75.3306 58.2435L68.6485 53.3843C68.6475 53.3836 68.6467 53.3827 68.6461 53.3817L68.6338 53.3604C68.632 53.3573 68.6273 53.3589 68.6277 53.3624C68.628 53.3652 68.6248 53.3671 68.6225 53.3654C68.6196 53.3633 68.6159 53.3666 68.6177 53.3697L68.63 53.391Z" fill="#FDFFA2"/>
<defs>
<filter id="filter0_ii_21_5106" x="0.0638797" y="10.2873" width="86.4367" height="75.5734" filterUnits="userSpaceOnUse" color-interpolation-filters="sRGB">
<feFlood flood-opacity="0" result="BackgroundImageFix"/>
<feBlend mode="normal" in="SourceGraphic" in2="BackgroundImageFix" result="shape"/>
<feColorMatrix in="SourceAlpha" type="matrix" values="0 0 0 0 0 0 0 0 0 0 0 0 0 0 0 0 0 0 127 0" result="hardAlpha"/>
<feOffset dx="-0.590417" dy="-0.590417"/>
<feGaussianBlur stdDeviation="0.885626"/>
<feComposite in2="hardAlpha" operator="arithmetic" k2="-1" k3="1"/>
<feColorMatrix type="matrix" values="0 0 0 0 0 0 0 0 0 0 0 0 0 0 0 0 0 0 0.5 0"/>
<feBlend mode="normal" in2="shape" result="effect1_innerShadow_21_5106"/>
<feColorMatrix in="SourceAlpha" type="matrix" values="0 0 0 0 0 0 0 0 0 0 0 0 0 0 0 0 0 0 127 0" result="hardAlpha"/>
<feOffset dx="0.590417" dy="0.590417"/>
<feGaussianBlur stdDeviation="0.885626"/>
<feComposite in2="hardAlpha" operator="arithmetic" k2="-1" k3="1"/>
<feColorMatrix type="matrix" values="0 0 0 0 1 0 0 0 0 1 0 0 0 0 1 0 0 0 0.8 0"/>
<feBlend mode="normal" in2="effect1_innerShadow_21_5106" result="effect2_innerShadow_21_5106"/>
</filter>
<filter id="filter1_b_21_5106" x="59.7612" y="34.6429" width="69.6183" height="63.3928" filterUnits="userSpaceOnUse" color-interpolation-filters="sRGB">
<feFlood flood-opacity="0" result="BackgroundImageFix"/>
<feGaussianBlur in="BackgroundImageFix" stdDeviation="4.01786"/>
<feComposite in2="SourceAlpha" operator="in" result="effect1_backgroundBlur_21_5106"/>
<feBlend mode="normal" in="SourceGraphic" in2="effect1_backgroundBlur_21_5106" result="shape"/>
</filter>
<linearGradient id="paint0_linear_21_5106" x1="94.5707" y1="42.6786" x2="94.5707" y2="90" gradientUnits="userSpaceOnUse">
<stop stop-color="#4227E7" stop-opacity="0.6"/>
<stop offset="1" stop-color="#4227E7"/>
</linearGradient>
<linearGradient id="paint1_linear_21_5106" x1="89.2936" y1="55.6748" x2="109.779" y2="85.3982" gradientUnits="userSpaceOnUse">
<stop stop-color="#F1EFFF" stop-opacity="0.8"/>
<stop offset="0.595" stop-color="#4227E7" stop-opacity="0.8"/>
<stop offset="1" stop-color="#4227E7" stop-opacity="0.4"/>
</linearGradient>
</defs>
</svg>
