<svg width="25" height="24" viewBox="0 0 25 24" fill="currentColor" xmlns="http://www.w3.org/2000/svg">
<path fill-rule="evenodd" clip-rule="evenodd" d="M11.4392 6.55582C9.97377 4.5211 7.19017 4.21288 5.35212 5.85348C3.47533 7.52864 3.35984 10.5324 5.10926 12.3598L12.4675 19.7784L19.8258 12.3598C21.5753 10.5324 21.4598 7.52865 19.583 5.85349C17.7449 4.21288 14.9613 4.5211 13.4959 6.55583L13.1978 6.9696C13.0287 7.20443 12.7569 7.34359 12.4675 7.34359C12.1781 7.34359 11.9064 7.20443 11.7373 6.9696L11.4392 6.55582ZM12.4675 4.96814C14.6351 2.56703 18.3067 2.30168 20.7816 4.51059C23.4251 6.87009 23.5763 11.0531 21.1193 13.6116L21.1091 13.622L13.6375 21.1548C12.9938 21.8183 11.9413 21.8183 11.2975 21.1548L3.82592 13.622L3.81577 13.6116C1.35879 11.0531 1.51001 6.8701 4.1535 4.5106C6.62829 2.30167 10.3001 2.56703 12.4675 4.96814Z" fill="currentColor"/>
</svg>
