<svg width="25" height="24" viewBox="0 0 25 24" fill="none" xmlns="http://www.w3.org/2000/svg">
<path fill-rule="evenodd" clip-rule="evenodd" d="M9.58968 7.27775C9.58968 5.6884 10.8781 4.39998 12.4675 4.39998C14.0568 4.39998 15.3452 5.6884 15.3452 7.27775C15.3452 8.86711 14.0568 10.1555 12.4675 10.1555C10.8781 10.1555 9.58968 8.86711 9.58968 7.27775ZM12.4675 2.59998C9.88399 2.59998 7.78968 4.69429 7.78968 7.27775C7.78968 9.86122 9.88399 11.9555 12.4675 11.9555C15.0509 11.9555 17.1452 9.86122 17.1452 7.27775C17.1452 4.69429 15.0509 2.59998 12.4675 2.59998ZM12.4675 13.101C15.3997 13.101 18.2729 13.9226 20.7769 15.4423C20.9702 15.5593 21.2043 15.7011 21.4006 15.9265C21.5665 16.117 21.7024 16.3591 21.7788 16.6C21.8694 16.8855 21.8685 17.1759 21.8678 17.4187L21.8677 18.9303C21.8677 19.1846 21.8677 19.4267 21.8511 19.6306C21.8329 19.853 21.7905 20.1082 21.6606 20.3631C21.4784 20.7206 21.1878 21.0113 20.8303 21.1935C20.5753 21.3234 20.3202 21.3658 20.0978 21.3839C19.8938 21.4006 19.6518 21.4006 19.3974 21.4006H5.53791C5.28359 21.4006 5.04155 21.4006 4.83758 21.3839C4.61518 21.3658 4.36007 21.3234 4.10509 21.1935C3.74758 21.0113 3.45692 20.7206 3.27476 20.3631C3.14484 20.1082 3.10246 19.853 3.08429 19.6306C3.06762 19.4267 3.06764 19.1846 3.06767 18.9303L3.06755 17.4186C3.06684 17.1757 3.06599 16.8854 3.15654 16.5998C3.2329 16.359 3.36888 16.1169 3.5348 15.9263C3.73108 15.7009 3.96516 15.5592 4.15846 15.4421C6.66242 13.9225 9.53549 13.101 12.4675 13.101ZM4.8898 17.1076C7.07782 15.7104 9.67671 14.9005 12.4675 14.9005C15.2584 14.9005 17.8574 15.7104 20.0455 17.1078C20.0493 17.1102 20.0676 17.1257 20.0676 17.1651V19.5001C20.0676 19.5553 20.0229 19.6001 19.9676 19.6001H4.96763C4.91241 19.6001 4.86763 19.5553 4.86763 19.5001V17.1649C4.86763 17.1256 4.88598 17.11 4.8898 17.1076Z" fill="#2D2D2D"/>
</svg>
