<svg width="160" height="81" viewBox="0 0 160 81" fill="none" xmlns="http://www.w3.org/2000/svg">
<path d="M24.8984 5.06152V8.31348H26.7295V9.64648H24.8984V12.7959H23.2578V5.06152H24.8984ZM20.5771 13.0449C23.2871 13.0449 25.001 14.0117 25.0156 15.6523C25.001 17.3223 23.2871 18.2891 20.5771 18.2891C17.8379 18.2891 16.0947 17.3223 16.0947 15.6523C16.0947 14.0117 17.8379 13.0449 20.5771 13.0449ZM20.5771 14.3486C18.7607 14.3486 17.6914 14.8027 17.7061 15.6523C17.6914 16.5166 18.7607 16.9854 20.5771 16.9854C22.3643 16.9854 23.4336 16.5166 23.4336 15.6523C23.4336 14.8027 22.3643 14.3486 20.5771 14.3486ZM20.8848 5.99902V7.31738H16.5635V10.6426C19.0977 10.6353 20.5112 10.562 22.0713 10.2324L22.2324 11.5361C20.5186 11.9023 18.9512 11.9609 16.0215 11.9609H14.9521V5.99902H20.8848ZM38.4336 5.07617V14.7441H36.793V5.07617H38.4336ZM38.7998 16.7217V18.04H29.6738V13.8213H31.3145V16.7217H38.7998ZM32.3398 7.09766C32.3398 8.94336 33.4238 10.6865 35.5186 11.3896L34.6836 12.6787C33.1748 12.1514 32.0981 11.0967 31.5195 9.74902C30.9189 11.1919 29.8276 12.3491 28.2676 12.9131L27.418 11.624C29.5713 10.8623 30.6553 9.00195 30.6553 7.09766V5.80859H32.3398V7.09766ZM51.793 5.06152V18.3037H50.2256V5.06152H51.793ZM49.0684 5.2959V17.6592H47.5156V11.3604H46.2559C46.1021 13.9385 44.9961 15.5352 43.3555 15.5205C41.627 15.5352 40.499 13.7041 40.499 10.7891C40.499 7.87402 41.627 6.07227 43.3555 6.07227C44.9595 6.07227 46.0508 7.56641 46.2412 10.042H47.5156V5.2959H49.0684ZM43.3555 7.61035C42.5205 7.5957 41.9932 8.72363 42.0078 10.7891C41.9932 12.8545 42.5205 13.9824 43.3555 13.9678C44.2344 13.9824 44.7617 12.8545 44.7617 10.7891C44.7617 8.72363 44.2344 7.5957 43.3555 7.61035ZM64.7568 5.06152V18.3037H63.2041V5.06152H64.7568ZM61.9443 5.38379V17.6738H60.4062V11.5801H58.0479C57.2715 13.1035 56.0264 14.4219 54.1514 15.5059L53.2285 14.3486C55.9751 12.73 57.2275 10.6572 57.4766 7.99121H53.9023V6.67285H59.0879C59.0879 7.95459 58.9341 9.15576 58.5752 10.2764H60.4062V5.38379H61.9443ZM80.5771 5.06152V8.45996H82.1445V9.82227H80.5771V12.9717H78.9365V5.06152H80.5771ZM80.5771 13.5283V18.3184H78.9365V14.832H71.5244V13.5283H80.5771ZM73.6338 6.11621V7.41992H71.7881V10.8184C72.4253 10.7964 73.0625 10.7305 73.7803 10.5693L73.9268 11.917C72.7988 12.1514 71.876 12.1514 70.8799 12.166H70.2354V6.11621H73.6338ZM77.8672 6.11621V7.41992H75.9043V10.8184C76.8345 10.7964 77.4644 10.7231 78.2188 10.5547L78.3799 11.9023C77.3545 12.1221 76.5635 12.1514 75.04 12.166H74.3369V6.11621H77.8672ZM85.543 6.39453L85.3818 13.8799H83.7266L83.5508 6.39453H85.543ZM84.5615 17.1172C83.9316 17.1172 83.4189 16.6045 83.4189 15.9746C83.4189 15.3594 83.9316 14.8467 84.5615 14.8467C85.1621 14.8467 85.6895 15.3594 85.6895 15.9746C85.6895 16.6045 85.1621 17.1172 84.5615 17.1172ZM97.4521 5.94043V11.6973H91.1826V5.94043H97.4521ZM92.7793 7.24414V10.3936H95.8555V7.24414H92.7793ZM101.173 5.06152V8.03516H103.019V9.38281H101.173V12.5322H99.5469V5.06152H101.173ZM101.363 13.2061V14.4951H97.8477C98.104 15.623 99.6055 16.6851 101.92 17.0146L101.334 18.2598C99.2686 17.9668 97.6938 17.0806 96.9395 15.8867C96.1704 17.0806 94.625 17.9595 92.5596 18.2305L91.959 17C94.2954 16.6851 95.7603 15.6523 96.0312 14.4951H92.501V13.2061H101.363ZM114.415 8.81152V10.1006H105.245V5.54492H106.856V8.81152H114.415ZM115.777 11.6387V12.9277H103.678V11.6387H115.777ZM114.503 16.6777V17.9961H105.128V14.0996H106.754V16.6777H114.503ZM125.035 7.40527C125.035 9.16309 126.09 10.877 128.141 11.5801L127.247 12.8545C125.819 12.3125 124.793 11.2798 124.244 9.9834C123.666 11.4336 122.589 12.5835 121.036 13.1621L120.172 11.873C122.296 11.1553 123.38 9.32422 123.395 7.39062V5.88184H125.035V7.40527ZM131.305 5.07617V14.9053H129.679V9.32422H127.042V7.99121H129.679V5.07617H131.305ZM131.598 16.7217V18.04H122.574V13.8359H124.229V16.7217H131.598ZM145.25 10.4375V11.7266H140.006V12.7227H143.741V15.9746H136.212V16.9414H144.107V18.1865H134.615V14.8027H142.145V13.9531H134.601V12.7227H138.38V11.7266H133.18V10.4375H145.25ZM143.697 5.47168V9.60254H134.703V5.47168H143.697ZM136.3 6.74609V8.32812H142.071V6.74609H136.3Z" fill="#FF5E00"/>
<path d="M124.686 81V64.3795L108.198 33H125.218L134.525 51.1496H134.658L143.966 33H159.522L143.035 64.3795V81H124.686Z" fill="#FF5E00"/>
<path d="M69.416 81V33H105.915V45.4986H88.4299V50.6177H105.915V63.1163H88.4299V81H69.416Z" fill="#FF5E00"/>
<path d="M47.6302 68.518L46.3005 33H65.3144L63.9847 68.518H47.6302Z" fill="#FF5E00"/>
<path d="M47.6301 81.0001V71.6261H63.9847V81.0001H47.6301Z" fill="#FF5E00"/>
<path d="M11.8338 81V45.8975H0V33H42.6814V45.8975H30.8476V81H11.8338Z" fill="#FF5E00"/>
</svg>
